<?xml version="1.0" encoding="UTF-8" standalone="no"?><svg xmlns="http://www.w3.org/2000/svg" xmlns:xlink="http://www.w3.org/1999/xlink" contentScriptType="application/ecmascript" contentStyleType="text/css" height="1474px" preserveAspectRatio="none" style="width:1377px;height:1474px;" version="1.1" viewBox="0 0 1377 1474" width="1377px" zoomAndPan="magnify"><defs><filter height="300%" id="fk97d6i2c1e3o" width="300%" x="-1" y="-1"><feGaussianBlur result="blurOut" stdDeviation="2.0"/><feColorMatrix in="blurOut" result="blurOut2" type="matrix" values="0 0 0 0 0 0 0 0 0 0 0 0 0 0 0 0 0 0 .4 0"/><feOffset dx="4.0" dy="4.0" in="blurOut2" result="blurOut3"/><feBlend in="SourceGraphic" in2="blurOut3" mode="normal"/></filter></defs><g><text fill="#000000" font-family="sans-serif" font-size="18" lengthAdjust="spacing" textLength="288" x="538.4381" y="16.708">UML - Projet C++ CLIAgeOfWar</text><!--MD5=[b6dcce5e5ef3c84b0b048d11301373dd]
class Game--><rect codeLine="3" fill="#FEFECE" filter="url(#fk97d6i2c1e3o)" height="196.8516" id="Game" style="stroke:#A80036;stroke-width:1.5;" width="310" x="773.3772" y="27.9531"/><ellipse cx="906.6272" cy="43.9531" fill="#ADD1B2" rx="11" ry="11" style="stroke:#A80036;stroke-width:1.0;"/><path d="M908.9709,39.625 C908.0334,39.1875 907.4397,39.0469 906.5647,39.0469 C903.9397,39.0469 901.9397,41.125 901.9397,43.8438 L901.9397,44.9688 C901.9397,47.5469 904.0491,49.4375 906.9397,49.4375 C908.1584,49.4375 909.3147,49.1406 910.0647,48.5938 C910.6428,48.1875 910.9709,47.7344 910.9709,47.3438 C910.9709,46.8906 910.5803,46.5 910.1116,46.5 C909.8928,46.5 909.6897,46.5781 909.5022,46.7656 C909.0491,47.25 909.0491,47.25 908.8616,47.3438 C908.4397,47.6094 907.7522,47.7344 906.9866,47.7344 C904.9397,47.7344 903.6428,46.6406 903.6428,44.9375 L903.6428,43.8438 C903.6428,42.0625 904.8928,40.75 906.6272,40.75 C907.2053,40.75 907.8147,40.9063 908.2834,41.1563 C908.7678,41.4375 908.9397,41.6563 909.0334,42.0625 C909.0959,42.4688 909.1272,42.5938 909.2678,42.7188 C909.4084,42.8594 909.6428,42.9688 909.8616,42.9688 C910.1272,42.9688 910.3928,42.8281 910.5647,42.6094 C910.6741,42.4531 910.7053,42.2656 910.7053,41.8438 L910.7053,40.4219 C910.7053,39.9844 910.6897,39.8594 910.5959,39.7031 C910.4397,39.4375 910.1584,39.2969 909.8616,39.2969 C909.5647,39.2969 909.3616,39.3906 909.1428,39.7031 L908.9709,39.625 Z " fill="#000000"/><text fill="#000000" font-family="sans-serif" font-size="12" lengthAdjust="spacing" textLength="35" x="927.1272" y="48.1074">Game</text><line style="stroke:#A80036;stroke-width:1.5;" x1="774.3772" x2="1082.3772" y1="59.9531" y2="59.9531"/><rect fill="none" height="6" style="stroke:#C82930;stroke-width:1.0;" width="6" x="781.3772" y="67.9531"/><text fill="#000000" font-family="sans-serif" font-size="11" lengthAdjust="spacing" textLength="101" x="793.3772" y="74.1636">int _maxTurnLimit</text><rect fill="none" height="6" style="stroke:#C82930;stroke-width:1.0;" width="6" x="781.3772" y="80.7578"/><text fill="#000000" font-family="sans-serif" font-size="11" lengthAdjust="spacing" textLength="73" x="793.3772" y="86.9683">int _earnings</text><rect fill="none" height="6" style="stroke:#C82930;stroke-width:1.0;" width="6" x="781.3772" y="93.5625"/><text fill="#000000" font-family="sans-serif" font-size="11" lengthAdjust="spacing" textLength="89" x="793.3772" y="99.7729">int _currentTurn</text><rect fill="none" height="6" style="stroke:#C82930;stroke-width:1.0;" width="6" x="781.3772" y="106.3672"/><text fill="#000000" font-family="sans-serif" font-size="11" lengthAdjust="spacing" textLength="127" x="793.3772" y="112.5776">string _consoleHeader</text><line style="stroke:#A80036;stroke-width:1.5;" x1="774.3772" x2="1082.3772" y1="119.1719" y2="119.1719"/><rect fill="#F24D5C" height="6" style="stroke:#C82930;stroke-width:1.0;" width="6" x="781.3772" y="127.1719"/><text fill="#000000" font-family="sans-serif" font-size="11" lengthAdjust="spacing" textLength="184" x="793.3772" y="133.3823">void initializeGame(int gridSize)</text><rect fill="#F24D5C" height="6" style="stroke:#C82930;stroke-width:1.0;" width="6" x="781.3772" y="139.9766"/><text fill="#000000" font-family="sans-serif" font-size="11" lengthAdjust="spacing" textLength="111" x="793.3772" y="146.187">void displayPlayer()</text><line style="stroke:#A80036;stroke-width:1.0;stroke-dasharray:1.0,2.0;" x1="774.3772" x2="1082.3772" y1="152.7813" y2="152.7813"/><ellipse cx="784.3772" cy="163.7813" fill="#84BE84" rx="3" ry="3" style="stroke:#038048;stroke-width:1.0;"/><text fill="#000000" font-family="sans-serif" font-size="11" lengthAdjust="spacing" textLength="284" x="793.3772" y="166.9917">Game(int gridSize, int maxTurnLimit, int earnings)</text><ellipse cx="784.3772" cy="176.5859" fill="#84BE84" rx="3" ry="3" style="stroke:#038048;stroke-width:1.0;"/><text fill="#000000" font-family="sans-serif" font-size="11" lengthAdjust="spacing" textLength="58" x="793.3772" y="179.7964">void turn()</text><ellipse cx="784.3772" cy="189.3906" fill="#84BE84" rx="3" ry="3" style="stroke:#038048;stroke-width:1.0;"/><text fill="#000000" font-family="sans-serif" font-size="11" lengthAdjust="spacing" textLength="112" x="793.3772" y="192.6011">void play(Player* p)</text><ellipse cx="784.3772" cy="202.1953" fill="#84BE84" rx="3" ry="3" style="stroke:#038048;stroke-width:1.0;"/><text fill="#000000" font-family="sans-serif" font-size="11" lengthAdjust="spacing" textLength="172" x="793.3772" y="205.4058">void resolveActions(Player* p)</text><ellipse cx="784.3772" cy="215" fill="#84BE84" rx="3" ry="3" style="stroke:#038048;stroke-width:1.0;"/><text fill="#000000" font-family="sans-serif" font-size="11" lengthAdjust="spacing" textLength="132" x="793.3772" y="218.2104">Console&amp; getConsole()</text><!--MD5=[315b61b427ec618d6861d47eee00cca3]
class Console--><rect codeLine="18" fill="#FEFECE" filter="url(#fk97d6i2c1e3o)" height="145.6328" id="Console" style="stroke:#A80036;stroke-width:1.5;" width="304" x="263.3772" y="301.9531"/><ellipse cx="386.6272" cy="317.9531" fill="#ADD1B2" rx="11" ry="11" style="stroke:#A80036;stroke-width:1.0;"/><path d="M388.971,313.625 C388.0335,313.1875 387.4397,313.0469 386.5647,313.0469 C383.9397,313.0469 381.9397,315.125 381.9397,317.8438 L381.9397,318.9688 C381.9397,321.5469 384.0491,323.4375 386.9397,323.4375 C388.1585,323.4375 389.3147,323.1406 390.0647,322.5938 C390.6428,322.1875 390.971,321.7344 390.971,321.3438 C390.971,320.8906 390.5803,320.5 390.1116,320.5 C389.8928,320.5 389.6897,320.5781 389.5022,320.7656 C389.0491,321.25 389.0491,321.25 388.8616,321.3438 C388.4397,321.6094 387.7522,321.7344 386.9866,321.7344 C384.9397,321.7344 383.6428,320.6406 383.6428,318.9375 L383.6428,317.8438 C383.6428,316.0625 384.8928,314.75 386.6272,314.75 C387.2053,314.75 387.8147,314.9063 388.2835,315.1563 C388.7678,315.4375 388.9397,315.6563 389.0335,316.0625 C389.096,316.4688 389.1272,316.5938 389.2678,316.7188 C389.4085,316.8594 389.6428,316.9688 389.8616,316.9688 C390.1272,316.9688 390.3928,316.8281 390.5647,316.6094 C390.6741,316.4531 390.7053,316.2656 390.7053,315.8438 L390.7053,314.4219 C390.7053,313.9844 390.6897,313.8594 390.596,313.7031 C390.4397,313.4375 390.1585,313.2969 389.8616,313.2969 C389.5647,313.2969 389.3616,313.3906 389.1428,313.7031 L388.971,313.625 Z " fill="#000000"/><text fill="#000000" font-family="sans-serif" font-size="12" lengthAdjust="spacing" textLength="49" x="407.1272" y="322.1074">Console</text><line style="stroke:#A80036;stroke-width:1.5;" x1="264.3772" x2="566.3772" y1="333.9531" y2="333.9531"/><rect fill="none" height="6" style="stroke:#C82930;stroke-width:1.0;" width="6" x="271.3772" y="341.9531"/><text fill="#000000" font-family="sans-serif" font-size="11" lengthAdjust="spacing" textLength="214" x="283.3772" y="348.1636">map&lt;Panel, vector&lt;string&gt;&gt; _panels</text><line style="stroke:#A80036;stroke-width:1.5;" x1="264.3772" x2="566.3772" y1="354.7578" y2="354.7578"/><rect fill="#F24D5C" height="6" style="stroke:#C82930;stroke-width:1.0;" width="6" x="271.3772" y="362.7578"/><text fill="#000000" font-family="sans-serif" font-size="11" lengthAdjust="spacing" textLength="94" x="283.3772" y="368.9683">int getMaxChar()</text><line style="stroke:#A80036;stroke-width:1.0;stroke-dasharray:1.0,2.0;" x1="264.3772" x2="566.3772" y1="375.5625" y2="375.5625"/><ellipse cx="274.3772" cy="386.5625" fill="#84BE84" rx="3" ry="3" style="stroke:#038048;stroke-width:1.0;"/><text fill="#000000" font-family="sans-serif" font-size="11" lengthAdjust="spacing" textLength="54" x="283.3772" y="389.7729">Console()</text><ellipse cx="274.3772" cy="399.3672" fill="#84BE84" rx="3" ry="3" style="stroke:#038048;stroke-width:1.0;"/><text fill="#000000" font-family="sans-serif" font-size="11" lengthAdjust="spacing" textLength="278" x="283.3772" y="402.5776">void addToPanel(string toAppend, Panel position)</text><ellipse cx="274.3772" cy="412.1719" fill="#84BE84" rx="3" ry="3" style="stroke:#038048;stroke-width:1.0;"/><text fill="#000000" font-family="sans-serif" font-size="11" lengthAdjust="spacing" textLength="76" x="283.3772" y="415.3823">void display()</text><ellipse cx="274.3772" cy="424.9766" fill="#84BE84" rx="3" ry="3" style="stroke:#038048;stroke-width:1.0;"/><text fill="#000000" font-family="sans-serif" font-size="11" lengthAdjust="spacing" textLength="64" x="283.3772" y="428.187">void clear()</text><ellipse cx="274.3772" cy="437.7813" fill="#84BE84" rx="3" ry="3" style="stroke:#038048;stroke-width:1.0;"/><text fill="#000000" font-family="sans-serif" font-size="11" lengthAdjust="spacing" textLength="242" x="283.3772" y="440.9917">string prompt(string message, bool ignore)</text><!--MD5=[8826dd0c6745c30c34898aa603e59f4f]
class Troup--><rect codeLine="29" fill="#FEFECE" filter="url(#fk97d6i2c1e3o)" height="188.8516" id="Troup" style="stroke:#A80036;stroke-width:1.5;" width="409" x="391.8772" y="790.9531"/><ellipse cx="574.6272" cy="806.9531" fill="#A9DCDF" rx="11" ry="11" style="stroke:#A80036;stroke-width:1.0;"/><path d="M576.7053,808.7656 L577.096,809.75 L576.7053,809.75 C576.2522,809.75 576.1428,809.7656 575.9866,809.875 C575.7366,810.0313 575.5803,810.3125 575.5803,810.6094 C575.5803,810.875 575.721,811.125 575.9397,811.2813 C576.0803,811.4063 576.2835,811.4531 576.7053,811.4531 L579.0647,811.4531 C579.4241,811.4531 579.6428,811.4219 579.7835,811.3281 C580.0335,811.1875 580.1897,810.8906 580.1897,810.6094 C580.1897,810.3281 580.0491,810.0781 579.8303,809.9219 C579.6585,809.7813 579.5022,809.75 579.0335,809.75 L575.6428,801.5469 L571.971,801.5469 C571.5178,801.5469 571.3928,801.5625 571.2366,801.6563 C570.9866,801.8281 570.8303,802.1094 570.8303,802.3906 C570.8303,802.6719 570.971,802.9219 571.1897,803.0938 C571.3616,803.2031 571.5335,803.2344 571.971,803.2344 L573.0491,803.2344 L570.4085,809.75 C569.9866,809.75 569.8303,809.7656 569.6741,809.875 C569.4241,810.0313 569.2678,810.3125 569.2678,810.6094 C569.2678,811.1719 569.6428,811.4531 570.3928,811.4531 L572.6585,811.4531 C573.0178,811.4531 573.2366,811.4219 573.3616,811.3281 C573.6272,811.1875 573.7678,810.8906 573.7678,810.6094 C573.7678,810.3281 573.6428,810.0781 573.4241,809.9063 C573.2522,809.7813 573.1116,809.75 572.6585,809.75 L572.2678,809.75 L572.6585,808.7656 L576.7053,808.7656 Z M576.0022,807.0625 L573.3303,807.0625 L574.6741,803.7969 L576.0022,807.0625 Z " fill="#000000"/><text fill="#000000" font-family="sans-serif" font-size="12" font-style="italic" lengthAdjust="spacing" textLength="35" x="595.1272" y="811.1074">Troup</text><line style="stroke:#A80036;stroke-width:1.5;" x1="392.8772" x2="799.8772" y1="822.9531" y2="822.9531"/><polygon fill="none" points="402.8772,828.9531,406.8772,832.9531,402.8772,836.9531,398.8772,832.9531" style="stroke:#B38D22;stroke-width:1.0;"/><text fill="#000000" font-family="sans-serif" font-size="11" lengthAdjust="spacing" textLength="47" x="411.8772" y="837.1636">int _cost</text><polygon fill="none" points="402.8772,841.7578,406.8772,845.7578,402.8772,849.7578,398.8772,845.7578" style="stroke:#B38D22;stroke-width:1.0;"/><text fill="#000000" font-family="sans-serif" font-size="11" lengthAdjust="spacing" textLength="71" x="411.8772" y="849.9683">int _damage</text><polygon fill="none" points="402.8772,854.5625,406.8772,858.5625,402.8772,862.5625,398.8772,858.5625" style="stroke:#B38D22;stroke-width:1.0;"/><text fill="#000000" font-family="sans-serif" font-size="11" lengthAdjust="spacing" textLength="155" x="411.8772" y="862.7729">vector&lt;vector&lt;int&gt; _reach</text><polygon fill="none" points="402.8772,867.3672,406.8772,871.3672,402.8772,875.3672,398.8772,871.3672" style="stroke:#B38D22;stroke-width:1.0;"/><text fill="#000000" font-family="sans-serif" font-size="11" lengthAdjust="spacing" textLength="149" x="411.8772" y="875.5776">map&lt;int, Action&gt; _actions</text><line style="stroke:#A80036;stroke-width:1.5;" x1="392.8772" x2="799.8772" y1="882.1719" y2="882.1719"/><ellipse cx="402.8772" cy="893.1719" fill="#84BE84" rx="3" ry="3" style="stroke:#038048;stroke-width:1.0;"/><text fill="#000000" font-family="sans-serif" font-size="11" lengthAdjust="spacing" textLength="70" x="411.8772" y="896.3823">int getCost()</text><ellipse cx="402.8772" cy="905.9766" fill="#84BE84" rx="3" ry="3" style="stroke:#038048;stroke-width:1.0;"/><text fill="#000000" font-family="sans-serif" font-size="11" lengthAdjust="spacing" textLength="94" x="411.8772" y="909.187">int getDamage()</text><ellipse cx="402.8772" cy="918.7813" fill="#84BE84" rx="3" ry="3" style="stroke:#038048;stroke-width:1.0;"/><text fill="#000000" font-family="sans-serif" font-size="11" lengthAdjust="spacing" textLength="109" x="411.8772" y="921.9917">Player* getOwner()</text><ellipse cx="402.8772" cy="931.5859" fill="#84BE84" rx="3" ry="3" style="stroke:#038048;stroke-width:1.0;"/><text fill="#000000" font-family="sans-serif" font-size="11" lengthAdjust="spacing" textLength="154" x="411.8772" y="934.7964">Action getAction(int phase)</text><ellipse cx="402.8772" cy="944.3906" fill="#84BE84" rx="3" ry="3" style="stroke:#038048;stroke-width:1.0;"/><text fill="#000000" font-family="sans-serif" font-size="11" lengthAdjust="spacing" textLength="383" x="411.8772" y="947.6011">GridCase* canAttack(Grid* grid, int casePosition, int moveDirection)</text><ellipse cx="402.8772" cy="957.1953" fill="#84BE84" rx="3" ry="3" style="stroke:#038048;stroke-width:1.0;"/><text fill="#000000" font-family="sans-serif" font-size="11" lengthAdjust="spacing" textLength="234" x="411.8772" y="960.4058">string attack(Grid* grid, GridCase* target)</text><ellipse cx="402.8772" cy="970" fill="#84BE84" rx="3" ry="3" style="stroke:#038048;stroke-width:1.0;"/><text fill="#000000" font-family="sans-serif" font-size="11" font-style="italic" lengthAdjust="spacing" textLength="162" x="411.8772" y="973.2104">string getName(bool isShort)</text><!--MD5=[1f24f7b92150e3316908f7910ce81742]
class Grid--><rect codeLine="42" fill="#FEFECE" filter="url(#fk97d6i2c1e3o)" height="124.8281" id="Grid" style="stroke:#A80036;stroke-width:1.5;" width="343" x="602.8772" y="312.4531"/><ellipse cx="757.6272" cy="328.4531" fill="#ADD1B2" rx="11" ry="11" style="stroke:#A80036;stroke-width:1.0;"/><path d="M759.971,324.125 C759.0335,323.6875 758.4397,323.5469 757.5647,323.5469 C754.9397,323.5469 752.9397,325.625 752.9397,328.3438 L752.9397,329.4688 C752.9397,332.0469 755.0491,333.9375 757.9397,333.9375 C759.1585,333.9375 760.3147,333.6406 761.0647,333.0938 C761.6428,332.6875 761.971,332.2344 761.971,331.8438 C761.971,331.3906 761.5803,331 761.1116,331 C760.8928,331 760.6897,331.0781 760.5022,331.2656 C760.0491,331.75 760.0491,331.75 759.8616,331.8438 C759.4397,332.1094 758.7522,332.2344 757.9866,332.2344 C755.9397,332.2344 754.6428,331.1406 754.6428,329.4375 L754.6428,328.3438 C754.6428,326.5625 755.8928,325.25 757.6272,325.25 C758.2053,325.25 758.8147,325.4063 759.2835,325.6563 C759.7678,325.9375 759.9397,326.1563 760.0335,326.5625 C760.096,326.9688 760.1272,327.0938 760.2678,327.2188 C760.4085,327.3594 760.6428,327.4688 760.8616,327.4688 C761.1272,327.4688 761.3928,327.3281 761.5647,327.1094 C761.6741,326.9531 761.7053,326.7656 761.7053,326.3438 L761.7053,324.9219 C761.7053,324.4844 761.6897,324.3594 761.596,324.2031 C761.4397,323.9375 761.1585,323.7969 760.8616,323.7969 C760.5647,323.7969 760.3616,323.8906 760.1428,324.2031 L759.971,324.125 Z " fill="#000000"/><text fill="#000000" font-family="sans-serif" font-size="12" lengthAdjust="spacing" textLength="25" x="778.1272" y="332.6074">Grid</text><line style="stroke:#A80036;stroke-width:1.5;" x1="603.8772" x2="944.8772" y1="344.4531" y2="344.4531"/><rect fill="none" height="6" style="stroke:#C82930;stroke-width:1.0;" width="6" x="610.8772" y="352.4531"/><text fill="#000000" font-family="sans-serif" font-size="11" lengthAdjust="spacing" textLength="71" x="622.8772" y="358.6636">int _gridSize</text><line style="stroke:#A80036;stroke-width:1.5;" x1="603.8772" x2="944.8772" y1="365.2578" y2="365.2578"/><ellipse cx="613.8772" cy="376.2578" fill="#84BE84" rx="3" ry="3" style="stroke:#038048;stroke-width:1.0;"/><text fill="#000000" font-family="sans-serif" font-size="11" lengthAdjust="spacing" textLength="268" x="622.8772" y="379.4683">Grid(const int gridSize, Player&amp; p1, Player&amp; p2)</text><ellipse cx="613.8772" cy="389.0625" fill="#84BE84" rx="3" ry="3" style="stroke:#038048;stroke-width:1.0;"/><text fill="#000000" font-family="sans-serif" font-size="11" lengthAdjust="spacing" textLength="317" x="622.8772" y="392.2729">void display(Console&amp; console, Player&amp; p1, Player&amp; p2)</text><ellipse cx="613.8772" cy="401.8672" fill="#84BE84" rx="3" ry="3" style="stroke:#038048;stroke-width:1.0;"/><text fill="#000000" font-family="sans-serif" font-size="11" lengthAdjust="spacing" textLength="94" x="622.8772" y="405.0776">int getGridSize()</text><ellipse cx="613.8772" cy="414.6719" fill="#84BE84" rx="3" ry="3" style="stroke:#038048;stroke-width:1.0;"/><text fill="#000000" font-family="sans-serif" font-size="11" lengthAdjust="spacing" textLength="201" x="622.8772" y="417.8823">vector&lt;GridCase*&gt;&amp; getAllCases()</text><ellipse cx="613.8772" cy="427.4766" fill="#84BE84" rx="3" ry="3" style="stroke:#038048;stroke-width:1.0;"/><text fill="#000000" font-family="sans-serif" font-size="11" lengthAdjust="spacing" textLength="153" x="622.8772" y="430.687">GridCase* find(int position)</text><!--MD5=[b496c9baaa1e1107bf940f89459e06f2]
class GridCase--><rect codeLine="50" fill="#FEFECE" filter="url(#fk97d6i2c1e3o)" height="188.8516" id="GridCase" style="stroke:#A80036;stroke-width:1.5;" width="293" x="516.8772" y="524.9531"/><ellipse cx="631.6272" cy="540.9531" fill="#ADD1B2" rx="11" ry="11" style="stroke:#A80036;stroke-width:1.0;"/><path d="M633.971,536.625 C633.0335,536.1875 632.4397,536.0469 631.5647,536.0469 C628.9397,536.0469 626.9397,538.125 626.9397,540.8438 L626.9397,541.9688 C626.9397,544.5469 629.0491,546.4375 631.9397,546.4375 C633.1585,546.4375 634.3147,546.1406 635.0647,545.5938 C635.6428,545.1875 635.971,544.7344 635.971,544.3438 C635.971,543.8906 635.5803,543.5 635.1116,543.5 C634.8928,543.5 634.6897,543.5781 634.5022,543.7656 C634.0491,544.25 634.0491,544.25 633.8616,544.3438 C633.4397,544.6094 632.7522,544.7344 631.9866,544.7344 C629.9397,544.7344 628.6428,543.6406 628.6428,541.9375 L628.6428,540.8438 C628.6428,539.0625 629.8928,537.75 631.6272,537.75 C632.2053,537.75 632.8147,537.9063 633.2835,538.1563 C633.7678,538.4375 633.9397,538.6563 634.0335,539.0625 C634.096,539.4688 634.1272,539.5938 634.2678,539.7188 C634.4085,539.8594 634.6428,539.9688 634.8616,539.9688 C635.1272,539.9688 635.3928,539.8281 635.5647,539.6094 C635.6741,539.4531 635.7053,539.2656 635.7053,538.8438 L635.7053,537.4219 C635.7053,536.9844 635.6897,536.8594 635.596,536.7031 C635.4397,536.4375 635.1585,536.2969 634.8616,536.2969 C634.5647,536.2969 634.3616,536.3906 634.1428,536.7031 L633.971,536.625 Z " fill="#000000"/><text fill="#000000" font-family="sans-serif" font-size="12" lengthAdjust="spacing" textLength="55" x="652.1272" y="545.1074">GridCase</text><line style="stroke:#A80036;stroke-width:1.5;" x1="517.8772" x2="808.8772" y1="556.9531" y2="556.9531"/><rect fill="none" height="6" style="stroke:#C82930;stroke-width:1.0;" width="6" x="524.8772" y="564.9531"/><text fill="#000000" font-family="sans-serif" font-size="11" lengthAdjust="spacing" textLength="62" x="536.8772" y="571.1636">int position</text><rect fill="none" height="6" style="stroke:#C82930;stroke-width:1.0;" width="6" x="524.8772" y="577.7578"/><text fill="#000000" font-family="sans-serif" font-size="11" lengthAdjust="spacing" textLength="62" x="536.8772" y="583.9683">bool _filled</text><line style="stroke:#A80036;stroke-width:1.5;" x1="517.8772" x2="808.8772" y1="590.5625" y2="590.5625"/><ellipse cx="527.8772" cy="601.5625" fill="#84BE84" rx="3" ry="3" style="stroke:#038048;stroke-width:1.0;"/><text fill="#000000" font-family="sans-serif" font-size="11" lengthAdjust="spacing" textLength="122" x="536.8772" y="604.7729">GridCase(int position)</text><ellipse cx="527.8772" cy="614.3672" fill="#84BE84" rx="3" ry="3" style="stroke:#038048;stroke-width:1.0;"/><text fill="#000000" font-family="sans-serif" font-size="11" lengthAdjust="spacing" textLength="152" x="536.8772" y="617.5776">bool placeUnit(Troup* unit)</text><ellipse cx="527.8772" cy="627.1719" fill="#84BE84" rx="3" ry="3" style="stroke:#038048;stroke-width:1.0;"/><text fill="#000000" font-family="sans-serif" font-size="11" lengthAdjust="spacing" textLength="81" x="536.8772" y="630.3823">bool isEmpty()</text><ellipse cx="527.8772" cy="639.9766" fill="#84BE84" rx="3" ry="3" style="stroke:#038048;stroke-width:1.0;"/><text fill="#000000" font-family="sans-serif" font-size="11" lengthAdjust="spacing" textLength="195" x="536.8772" y="643.187">string getTroupName(bool isShort)</text><ellipse cx="527.8772" cy="652.7813" fill="#84BE84" rx="3" ry="3" style="stroke:#038048;stroke-width:1.0;"/><text fill="#000000" font-family="sans-serif" font-size="11" lengthAdjust="spacing" textLength="91" x="536.8772" y="655.9917">Troup* getUnit()</text><ellipse cx="527.8772" cy="665.5859" fill="#84BE84" rx="3" ry="3" style="stroke:#038048;stroke-width:1.0;"/><text fill="#000000" font-family="sans-serif" font-size="11" lengthAdjust="spacing" textLength="131" x="536.8772" y="668.7964">Player* getUnitOwner()</text><ellipse cx="527.8772" cy="678.3906" fill="#84BE84" rx="3" ry="3" style="stroke:#038048;stroke-width:1.0;"/><text fill="#000000" font-family="sans-serif" font-size="11" lengthAdjust="spacing" textLength="176" x="536.8772" y="681.6011">Action getUnitAction(int phase)</text><ellipse cx="527.8772" cy="691.1953" fill="#84BE84" rx="3" ry="3" style="stroke:#038048;stroke-width:1.0;"/><text fill="#000000" font-family="sans-serif" font-size="11" lengthAdjust="spacing" textLength="267" x="536.8772" y="694.4058">void transferTroupToCase(GridCase* gridCase)</text><ellipse cx="527.8772" cy="704" fill="#84BE84" rx="3" ry="3" style="stroke:#038048;stroke-width:1.0;"/><text fill="#000000" font-family="sans-serif" font-size="11" lengthAdjust="spacing" textLength="175" x="536.8772" y="707.2104">bool suffersAttack(int damage)</text><!--MD5=[da7d1f6848965b135f193f8109b0a1f3]
class HomeCase--><rect codeLine="63" fill="#FEFECE" filter="url(#fk97d6i2c1e3o)" height="73.6094" id="HomeCase" style="stroke:#A80036;stroke-width:1.5;" width="201" x="916.8772" y="1386.9531"/><ellipse cx="980.1272" cy="1402.9531" fill="#ADD1B2" rx="11" ry="11" style="stroke:#A80036;stroke-width:1.0;"/><path d="M982.4709,1398.625 C981.5334,1398.1875 980.9397,1398.0469 980.0647,1398.0469 C977.4397,1398.0469 975.4397,1400.125 975.4397,1402.8438 L975.4397,1403.9688 C975.4397,1406.5469 977.5491,1408.4375 980.4397,1408.4375 C981.6584,1408.4375 982.8147,1408.1406 983.5647,1407.5938 C984.1428,1407.1875 984.4709,1406.7344 984.4709,1406.3438 C984.4709,1405.8906 984.0803,1405.5 983.6116,1405.5 C983.3928,1405.5 983.1897,1405.5781 983.0022,1405.7656 C982.5491,1406.25 982.5491,1406.25 982.3616,1406.3438 C981.9397,1406.6094 981.2522,1406.7344 980.4866,1406.7344 C978.4397,1406.7344 977.1428,1405.6406 977.1428,1403.9375 L977.1428,1402.8438 C977.1428,1401.0625 978.3928,1399.75 980.1272,1399.75 C980.7053,1399.75 981.3147,1399.9063 981.7834,1400.1563 C982.2678,1400.4375 982.4397,1400.6563 982.5334,1401.0625 C982.5959,1401.4688 982.6272,1401.5938 982.7678,1401.7188 C982.9084,1401.8594 983.1428,1401.9688 983.3616,1401.9688 C983.6272,1401.9688 983.8928,1401.8281 984.0647,1401.6094 C984.1741,1401.4531 984.2053,1401.2656 984.2053,1400.8438 L984.2053,1399.4219 C984.2053,1398.9844 984.1897,1398.8594 984.0959,1398.7031 C983.9397,1398.4375 983.6584,1398.2969 983.3616,1398.2969 C983.0647,1398.2969 982.8616,1398.3906 982.6428,1398.7031 L982.4709,1398.625 Z " fill="#000000"/><text fill="#000000" font-family="sans-serif" font-size="12" lengthAdjust="spacing" textLength="66" x="1000.6272" y="1407.1074">HomeCase</text><line style="stroke:#A80036;stroke-width:1.5;" x1="917.8772" x2="1116.8772" y1="1418.9531" y2="1418.9531"/><line style="stroke:#A80036;stroke-width:1.5;" x1="917.8772" x2="1116.8772" y1="1426.9531" y2="1426.9531"/><ellipse cx="927.8772" cy="1437.9531" fill="#84BE84" rx="3" ry="3" style="stroke:#038048;stroke-width:1.0;"/><text fill="#000000" font-family="sans-serif" font-size="11" lengthAdjust="spacing" textLength="133" x="936.8772" y="1441.1636">HomeCase(int position)</text><ellipse cx="927.8772" cy="1450.7578" fill="#84BE84" rx="3" ry="3" style="stroke:#038048;stroke-width:1.0;"/><text fill="#000000" font-family="sans-serif" font-size="11" lengthAdjust="spacing" textLength="175" x="936.8772" y="1453.9683">bool suffersAttack(int damage)</text><!--MD5=[53272eeea06fe80d83fd996defbd63c3]
class Health--><rect codeLine="67" fill="#FEFECE" filter="url(#fk97d6i2c1e3o)" height="99.2188" id="Health" style="stroke:#A80036;stroke-width:1.5;" width="209" x="1154.8762" y="569.9531"/><ellipse cx="1235.6262" cy="585.9531" fill="#A9DCDF" rx="11" ry="11" style="stroke:#A80036;stroke-width:1.0;"/><path d="M1237.7043,587.7656 L1238.095,588.75 L1237.7043,588.75 C1237.2512,588.75 1237.1418,588.7656 1236.9856,588.875 C1236.7356,589.0313 1236.5793,589.3125 1236.5793,589.6094 C1236.5793,589.875 1236.72,590.125 1236.9387,590.2813 C1237.0793,590.4063 1237.2825,590.4531 1237.7043,590.4531 L1240.0637,590.4531 C1240.4231,590.4531 1240.6418,590.4219 1240.7825,590.3281 C1241.0325,590.1875 1241.1887,589.8906 1241.1887,589.6094 C1241.1887,589.3281 1241.0481,589.0781 1240.8293,588.9219 C1240.6575,588.7813 1240.5012,588.75 1240.0325,588.75 L1236.6418,580.5469 L1232.97,580.5469 C1232.5168,580.5469 1232.3918,580.5625 1232.2356,580.6563 C1231.9856,580.8281 1231.8293,581.1094 1231.8293,581.3906 C1231.8293,581.6719 1231.97,581.9219 1232.1887,582.0938 C1232.3606,582.2031 1232.5325,582.2344 1232.97,582.2344 L1234.0481,582.2344 L1231.4075,588.75 C1230.9856,588.75 1230.8293,588.7656 1230.6731,588.875 C1230.4231,589.0313 1230.2668,589.3125 1230.2668,589.6094 C1230.2668,590.1719 1230.6418,590.4531 1231.3918,590.4531 L1233.6575,590.4531 C1234.0168,590.4531 1234.2356,590.4219 1234.3606,590.3281 C1234.6262,590.1875 1234.7668,589.8906 1234.7668,589.6094 C1234.7668,589.3281 1234.6418,589.0781 1234.4231,588.9063 C1234.2512,588.7813 1234.1106,588.75 1233.6575,588.75 L1233.2668,588.75 L1233.6575,587.7656 L1237.7043,587.7656 Z M1237.0012,586.0625 L1234.3293,586.0625 L1235.6731,582.7969 L1237.0012,586.0625 Z " fill="#000000"/><text fill="#000000" font-family="sans-serif" font-size="12" font-style="italic" lengthAdjust="spacing" textLength="39" x="1256.1262" y="590.1074">Health</text><line style="stroke:#A80036;stroke-width:1.5;" x1="1155.8762" x2="1362.8762" y1="601.9531" y2="601.9531"/><polygon fill="none" points="1165.8762,607.9531,1169.8762,611.9531,1165.8762,615.9531,1161.8762,611.9531" style="stroke:#B38D22;stroke-width:1.0;"/><text fill="#000000" font-family="sans-serif" font-size="11" lengthAdjust="spacing" textLength="91" x="1174.8762" y="616.1636">int _initialHealth</text><polygon fill="none" points="1165.8762,620.7578,1169.8762,624.7578,1165.8762,628.7578,1161.8762,624.7578" style="stroke:#B38D22;stroke-width:1.0;"/><text fill="#000000" font-family="sans-serif" font-size="11" lengthAdjust="spacing" textLength="101" x="1174.8762" y="628.9683">int _currentHealth</text><line style="stroke:#A80036;stroke-width:1.5;" x1="1155.8762" x2="1362.8762" y1="635.5625" y2="635.5625"/><ellipse cx="1165.8762" cy="646.5625" fill="#84BE84" rx="3" ry="3" style="stroke:#038048;stroke-width:1.0;"/><text fill="#000000" font-family="sans-serif" font-size="11" lengthAdjust="spacing" textLength="124" x="1174.8762" y="649.7729">int getCurrentHealth()</text><ellipse cx="1165.8762" cy="659.3672" fill="#84BE84" rx="3" ry="3" style="stroke:#038048;stroke-width:1.0;"/><text fill="#000000" font-family="sans-serif" font-size="11" lengthAdjust="spacing" textLength="183" x="1174.8762" y="662.5776">void removeHealth(int damage)</text><!--MD5=[9763aec34dadcbc6c8f31d24f57a8b53]
class Fantassin--><rect codeLine="73" fill="#FEFECE" filter="url(#fk97d6i2c1e3o)" height="60.8047" id="Fantassin" style="stroke:#A80036;stroke-width:1.5;" width="154" x="690.3772" y="1152.9531"/><ellipse cx="735.1272" cy="1168.9531" fill="#ADD1B2" rx="11" ry="11" style="stroke:#A80036;stroke-width:1.0;"/><path d="M737.4709,1164.625 C736.5334,1164.1875 735.9397,1164.0469 735.0647,1164.0469 C732.4397,1164.0469 730.4397,1166.125 730.4397,1168.8438 L730.4397,1169.9688 C730.4397,1172.5469 732.5491,1174.4375 735.4397,1174.4375 C736.6584,1174.4375 737.8147,1174.1406 738.5647,1173.5938 C739.1428,1173.1875 739.4709,1172.7344 739.4709,1172.3438 C739.4709,1171.8906 739.0803,1171.5 738.6116,1171.5 C738.3928,1171.5 738.1897,1171.5781 738.0022,1171.7656 C737.5491,1172.25 737.5491,1172.25 737.3616,1172.3438 C736.9397,1172.6094 736.2522,1172.7344 735.4866,1172.7344 C733.4397,1172.7344 732.1428,1171.6406 732.1428,1169.9375 L732.1428,1168.8438 C732.1428,1167.0625 733.3928,1165.75 735.1272,1165.75 C735.7053,1165.75 736.3147,1165.9063 736.7834,1166.1563 C737.2678,1166.4375 737.4397,1166.6563 737.5334,1167.0625 C737.5959,1167.4688 737.6272,1167.5938 737.7678,1167.7188 C737.9084,1167.8594 738.1428,1167.9688 738.3616,1167.9688 C738.6272,1167.9688 738.8928,1167.8281 739.0647,1167.6094 C739.1741,1167.4531 739.2053,1167.2656 739.2053,1166.8438 L739.2053,1165.4219 C739.2053,1164.9844 739.1897,1164.8594 739.0959,1164.7031 C738.9397,1164.4375 738.6584,1164.2969 738.3616,1164.2969 C738.0647,1164.2969 737.8616,1164.3906 737.6428,1164.7031 L737.4709,1164.625 Z " fill="#000000"/><text fill="#000000" font-family="sans-serif" font-size="12" lengthAdjust="spacing" textLength="56" x="755.6272" y="1173.1074">Fantassin</text><line style="stroke:#A80036;stroke-width:1.5;" x1="691.3772" x2="843.3772" y1="1184.9531" y2="1184.9531"/><line style="stroke:#A80036;stroke-width:1.5;" x1="691.3772" x2="843.3772" y1="1192.9531" y2="1192.9531"/><text fill="#000000" font-family="sans-serif" font-size="11" lengthAdjust="spacing" textLength="142" x="696.3772" y="1207.1636">Fantassin(Player* player)</text><!--MD5=[deac7861478dcf43a2a7e37b65ee84f7]
class Archer--><rect codeLine="76" fill="#FEFECE" filter="url(#fk97d6i2c1e3o)" height="60.8047" id="Archer" style="stroke:#A80036;stroke-width:1.5;" width="138" x="187.3767" y="1152.9531"/><ellipse cx="232.1267" cy="1168.9531" fill="#ADD1B2" rx="11" ry="11" style="stroke:#A80036;stroke-width:1.0;"/><path d="M234.4705,1164.625 C233.533,1164.1875 232.9392,1164.0469 232.0642,1164.0469 C229.4392,1164.0469 227.4392,1166.125 227.4392,1168.8438 L227.4392,1169.9688 C227.4392,1172.5469 229.5486,1174.4375 232.4392,1174.4375 C233.658,1174.4375 234.8142,1174.1406 235.5642,1173.5938 C236.1423,1173.1875 236.4705,1172.7344 236.4705,1172.3438 C236.4705,1171.8906 236.0798,1171.5 235.6111,1171.5 C235.3923,1171.5 235.1892,1171.5781 235.0017,1171.7656 C234.5486,1172.25 234.5486,1172.25 234.3611,1172.3438 C233.9392,1172.6094 233.2517,1172.7344 232.4861,1172.7344 C230.4392,1172.7344 229.1423,1171.6406 229.1423,1169.9375 L229.1423,1168.8438 C229.1423,1167.0625 230.3923,1165.75 232.1267,1165.75 C232.7048,1165.75 233.3142,1165.9063 233.783,1166.1563 C234.2673,1166.4375 234.4392,1166.6563 234.533,1167.0625 C234.5955,1167.4688 234.6267,1167.5938 234.7673,1167.7188 C234.908,1167.8594 235.1423,1167.9688 235.3611,1167.9688 C235.6267,1167.9688 235.8923,1167.8281 236.0642,1167.6094 C236.1736,1167.4531 236.2048,1167.2656 236.2048,1166.8438 L236.2048,1165.4219 C236.2048,1164.9844 236.1892,1164.8594 236.0955,1164.7031 C235.9392,1164.4375 235.658,1164.2969 235.3611,1164.2969 C235.0642,1164.2969 234.8611,1164.3906 234.6423,1164.7031 L234.4705,1164.625 Z " fill="#000000"/><text fill="#000000" font-family="sans-serif" font-size="12" lengthAdjust="spacing" textLength="40" x="252.6267" y="1173.1074">Archer</text><line style="stroke:#A80036;stroke-width:1.5;" x1="188.3767" x2="324.3767" y1="1184.9531" y2="1184.9531"/><line style="stroke:#A80036;stroke-width:1.5;" x1="188.3767" x2="324.3767" y1="1192.9531" y2="1192.9531"/><text fill="#000000" font-family="sans-serif" font-size="11" lengthAdjust="spacing" textLength="126" x="193.3767" y="1207.1636">Archer(Player* player)</text><!--MD5=[7e00700e11131a05fea69ced40092349]
class Catapult--><rect codeLine="79" fill="#FEFECE" filter="url(#fk97d6i2c1e3o)" height="60.8047" id="Catapult" style="stroke:#A80036;stroke-width:1.5;" width="148" x="360.3772" y="1152.9531"/><ellipse cx="406.1272" cy="1168.9531" fill="#ADD1B2" rx="11" ry="11" style="stroke:#A80036;stroke-width:1.0;"/><path d="M408.471,1164.625 C407.5335,1164.1875 406.9397,1164.0469 406.0647,1164.0469 C403.4397,1164.0469 401.4397,1166.125 401.4397,1168.8438 L401.4397,1169.9688 C401.4397,1172.5469 403.5491,1174.4375 406.4397,1174.4375 C407.6585,1174.4375 408.8147,1174.1406 409.5647,1173.5938 C410.1428,1173.1875 410.471,1172.7344 410.471,1172.3438 C410.471,1171.8906 410.0803,1171.5 409.6116,1171.5 C409.3928,1171.5 409.1897,1171.5781 409.0022,1171.7656 C408.5491,1172.25 408.5491,1172.25 408.3616,1172.3438 C407.9397,1172.6094 407.2522,1172.7344 406.4866,1172.7344 C404.4397,1172.7344 403.1428,1171.6406 403.1428,1169.9375 L403.1428,1168.8438 C403.1428,1167.0625 404.3928,1165.75 406.1272,1165.75 C406.7053,1165.75 407.3147,1165.9063 407.7835,1166.1563 C408.2678,1166.4375 408.4397,1166.6563 408.5335,1167.0625 C408.596,1167.4688 408.6272,1167.5938 408.7678,1167.7188 C408.9085,1167.8594 409.1428,1167.9688 409.3616,1167.9688 C409.6272,1167.9688 409.8928,1167.8281 410.0647,1167.6094 C410.1741,1167.4531 410.2053,1167.2656 410.2053,1166.8438 L410.2053,1165.4219 C410.2053,1164.9844 410.1897,1164.8594 410.096,1164.7031 C409.9397,1164.4375 409.6585,1164.2969 409.3616,1164.2969 C409.0647,1164.2969 408.8616,1164.3906 408.6428,1164.7031 L408.471,1164.625 Z " fill="#000000"/><text fill="#000000" font-family="sans-serif" font-size="12" lengthAdjust="spacing" textLength="48" x="426.6272" y="1173.1074">Catapult</text><line style="stroke:#A80036;stroke-width:1.5;" x1="361.3772" x2="507.3772" y1="1184.9531" y2="1184.9531"/><line style="stroke:#A80036;stroke-width:1.5;" x1="361.3772" x2="507.3772" y1="1192.9531" y2="1192.9531"/><text fill="#000000" font-family="sans-serif" font-size="11" lengthAdjust="spacing" textLength="136" x="366.3772" y="1207.1636">Catapult(Player* player)</text><!--MD5=[11505635bb756aeac8cd54b35fbf5e75]
class SuperSoldier--><rect codeLine="82" fill="#FEFECE" filter="url(#fk97d6i2c1e3o)" height="48" id="SuperSoldier" style="stroke:#A80036;stroke-width:1.5;" width="111" x="543.8772" y="1159.4531"/><ellipse cx="558.8772" cy="1175.4531" fill="#ADD1B2" rx="11" ry="11" style="stroke:#A80036;stroke-width:1.0;"/><path d="M561.221,1171.125 C560.2835,1170.6875 559.6897,1170.5469 558.8147,1170.5469 C556.1897,1170.5469 554.1897,1172.625 554.1897,1175.3438 L554.1897,1176.4688 C554.1897,1179.0469 556.2991,1180.9375 559.1897,1180.9375 C560.4085,1180.9375 561.5647,1180.6406 562.3147,1180.0938 C562.8928,1179.6875 563.221,1179.2344 563.221,1178.8438 C563.221,1178.3906 562.8303,1178 562.3616,1178 C562.1428,1178 561.9397,1178.0781 561.7522,1178.2656 C561.2991,1178.75 561.2991,1178.75 561.1116,1178.8438 C560.6897,1179.1094 560.0022,1179.2344 559.2366,1179.2344 C557.1897,1179.2344 555.8928,1178.1406 555.8928,1176.4375 L555.8928,1175.3438 C555.8928,1173.5625 557.1428,1172.25 558.8772,1172.25 C559.4553,1172.25 560.0647,1172.4063 560.5335,1172.6563 C561.0178,1172.9375 561.1897,1173.1563 561.2835,1173.5625 C561.346,1173.9688 561.3772,1174.0938 561.5178,1174.2188 C561.6585,1174.3594 561.8928,1174.4688 562.1116,1174.4688 C562.3772,1174.4688 562.6428,1174.3281 562.8147,1174.1094 C562.9241,1173.9531 562.9553,1173.7656 562.9553,1173.3438 L562.9553,1171.9219 C562.9553,1171.4844 562.9397,1171.3594 562.846,1171.2031 C562.6897,1170.9375 562.4085,1170.7969 562.1116,1170.7969 C561.8147,1170.7969 561.6116,1170.8906 561.3928,1171.2031 L561.221,1171.125 Z " fill="#000000"/><text fill="#000000" font-family="sans-serif" font-size="12" lengthAdjust="spacing" textLength="79" x="572.8772" y="1179.6074">SuperSoldier</text><line style="stroke:#A80036;stroke-width:1.5;" x1="544.8772" x2="653.8772" y1="1191.4531" y2="1191.4531"/><line style="stroke:#A80036;stroke-width:1.5;" x1="544.8772" x2="653.8772" y1="1199.4531" y2="1199.4531"/><!--MD5=[2cb47ba637a0d19583e6199456f6ad0b]
class Player--><rect codeLine="83" fill="#FEFECE" filter="url(#fk97d6i2c1e3o)" height="252.875" id="Player" style="stroke:#A80036;stroke-width:1.5;" width="275" x="879.8772" y="1056.9531"/><ellipse cx="995.1272" cy="1072.9531" fill="#ADD1B2" rx="11" ry="11" style="stroke:#A80036;stroke-width:1.0;"/><path d="M997.4709,1068.625 C996.5334,1068.1875 995.9397,1068.0469 995.0647,1068.0469 C992.4397,1068.0469 990.4397,1070.125 990.4397,1072.8438 L990.4397,1073.9688 C990.4397,1076.5469 992.5491,1078.4375 995.4397,1078.4375 C996.6584,1078.4375 997.8147,1078.1406 998.5647,1077.5938 C999.1428,1077.1875 999.4709,1076.7344 999.4709,1076.3438 C999.4709,1075.8906 999.0803,1075.5 998.6116,1075.5 C998.3928,1075.5 998.1897,1075.5781 998.0022,1075.7656 C997.5491,1076.25 997.5491,1076.25 997.3616,1076.3438 C996.9397,1076.6094 996.2522,1076.7344 995.4866,1076.7344 C993.4397,1076.7344 992.1428,1075.6406 992.1428,1073.9375 L992.1428,1072.8438 C992.1428,1071.0625 993.3928,1069.75 995.1272,1069.75 C995.7053,1069.75 996.3147,1069.9063 996.7834,1070.1563 C997.2678,1070.4375 997.4397,1070.6563 997.5334,1071.0625 C997.5959,1071.4688 997.6272,1071.5938 997.7678,1071.7188 C997.9084,1071.8594 998.1428,1071.9688 998.3616,1071.9688 C998.6272,1071.9688 998.8928,1071.8281 999.0647,1071.6094 C999.1741,1071.4531 999.2053,1071.2656 999.2053,1070.8438 L999.2053,1069.4219 C999.2053,1068.9844 999.1897,1068.8594 999.0959,1068.7031 C998.9397,1068.4375 998.6584,1068.2969 998.3616,1068.2969 C998.0647,1068.2969 997.8616,1068.3906 997.6428,1068.7031 L997.4709,1068.625 Z " fill="#000000"/><text fill="#000000" font-family="sans-serif" font-size="12" lengthAdjust="spacing" textLength="36" x="1015.6272" y="1077.1074">Player</text><line style="stroke:#A80036;stroke-width:1.5;" x1="880.8772" x2="1153.8772" y1="1088.9531" y2="1088.9531"/><rect fill="none" height="6" style="stroke:#C82930;stroke-width:1.0;" width="6" x="887.8772" y="1096.9531"/><text fill="#000000" font-family="sans-serif" font-size="11" lengthAdjust="spacing" textLength="111" x="899.8772" y="1103.1636">string _playerName</text><rect fill="none" height="6" style="stroke:#C82930;stroke-width:1.0;" width="6" x="887.8772" y="1109.7578"/><text fill="#000000" font-family="sans-serif" font-size="11" lengthAdjust="spacing" textLength="70" x="899.8772" y="1115.9683">int _playerId</text><rect fill="none" height="6" style="stroke:#C82930;stroke-width:1.0;" width="6" x="887.8772" y="1122.5625"/><text fill="#000000" font-family="sans-serif" font-size="11" lengthAdjust="spacing" textLength="53" x="899.8772" y="1128.7729">int _coins</text><rect fill="none" height="6" style="stroke:#C82930;stroke-width:1.0;" width="6" x="887.8772" y="1135.3672"/><text fill="#000000" font-family="sans-serif" font-size="11" lengthAdjust="spacing" text-decoration="underline" textLength="105" x="899.8772" y="1141.5776">int _playerNumber</text><line style="stroke:#A80036;stroke-width:1.5;" x1="880.8772" x2="1153.8772" y1="1148.1719" y2="1148.1719"/><ellipse cx="890.8772" cy="1159.1719" fill="#84BE84" rx="3" ry="3" style="stroke:#038048;stroke-width:1.0;"/><text fill="#000000" font-family="sans-serif" font-size="11" lengthAdjust="spacing" textLength="181" x="899.8772" y="1162.3823">Player(HomeCase &amp;homeCase)</text><ellipse cx="890.8772" cy="1171.9766" fill="#84BE84" rx="3" ry="3" style="stroke:#038048;stroke-width:1.0;"/><text fill="#000000" font-family="sans-serif" font-size="11" lengthAdjust="spacing" textLength="99" x="899.8772" y="1175.187">string displayStr()</text><ellipse cx="890.8772" cy="1184.7813" fill="#84BE84" rx="3" ry="3" style="stroke:#038048;stroke-width:1.0;"/><text fill="#000000" font-family="sans-serif" font-size="11" lengthAdjust="spacing" textLength="178" x="899.8772" y="1187.9917">void initialize(Console console)</text><ellipse cx="890.8772" cy="1197.5859" fill="#84BE84" rx="3" ry="3" style="stroke:#038048;stroke-width:1.0;"/><text fill="#000000" font-family="sans-serif" font-size="11" lengthAdjust="spacing" textLength="119" x="899.8772" y="1200.7964">string getFirstLetter()</text><ellipse cx="890.8772" cy="1210.3906" fill="#84BE84" rx="3" ry="3" style="stroke:#038048;stroke-width:1.0;"/><text fill="#000000" font-family="sans-serif" font-size="11" lengthAdjust="spacing" textLength="96" x="899.8772" y="1213.6011">string getName()</text><ellipse cx="890.8772" cy="1223.1953" fill="#84BE84" rx="3" ry="3" style="stroke:#038048;stroke-width:1.0;"/><text fill="#000000" font-family="sans-serif" font-size="11" lengthAdjust="spacing" textLength="172" x="899.8772" y="1226.4058">void incrementCoins(int coins)</text><ellipse cx="890.8772" cy="1236" fill="#84BE84" rx="3" ry="3" style="stroke:#038048;stroke-width:1.0;"/><text fill="#000000" font-family="sans-serif" font-size="11" lengthAdjust="spacing" textLength="177" x="899.8772" y="1239.2104">void decrementCoins(int coins)</text><ellipse cx="890.8772" cy="1248.8047" fill="#84BE84" rx="3" ry="3" style="stroke:#038048;stroke-width:1.0;"/><text fill="#000000" font-family="sans-serif" font-size="11" lengthAdjust="spacing" textLength="61" x="899.8772" y="1252.0151">bool isKO()</text><ellipse cx="890.8772" cy="1261.6094" fill="#84BE84" rx="3" ry="3" style="stroke:#038048;stroke-width:1.0;"/><text fill="#000000" font-family="sans-serif" font-size="11" lengthAdjust="spacing" textLength="118" x="899.8772" y="1264.8198">bool canPlaceTroup()</text><ellipse cx="890.8772" cy="1274.4141" fill="#84BE84" rx="3" ry="3" style="stroke:#038048;stroke-width:1.0;"/><text fill="#000000" font-family="sans-serif" font-size="11" lengthAdjust="spacing" textLength="249" x="899.8772" y="1277.6245">void placeTroupOnHomeCase(Troup* troup)</text><ellipse cx="890.8772" cy="1287.2188" fill="#84BE84" rx="3" ry="3" style="stroke:#038048;stroke-width:1.0;"/><text fill="#000000" font-family="sans-serif" font-size="11" lengthAdjust="spacing" textLength="155" x="899.8772" y="1290.4292">GridCase&amp; getHomeCase()</text><ellipse cx="890.8772" cy="1300.0234" fill="#84BE84" rx="3" ry="3" style="stroke:#038048;stroke-width:1.0;"/><text fill="#000000" font-family="sans-serif" font-size="11" lengthAdjust="spacing" textLength="76" x="899.8772" y="1303.2339">int getCoins()</text><!--MD5=[0174392a0c212c3b3e97bee69152624c]
class Panel--><rect codeLine="101" fill="#FEFECE" filter="url(#fk97d6i2c1e3o)" height="99.2188" id="Panel" style="stroke:#A80036;stroke-width:1.5;" width="63" x="1118.8762" y="76.9531"/><ellipse cx="1133.8762" cy="92.9531" fill="#EB937F" rx="11" ry="11" style="stroke:#A80036;stroke-width:1.0;"/><path d="M1132.6731,93.8281 L1134.1262,93.8281 L1134.1262,93.9375 C1134.1262,94.3438 1134.1575,94.5 1134.2356,94.6563 C1134.3918,94.9063 1134.6731,95.0625 1134.97,95.0625 C1135.22,95.0625 1135.4856,94.9219 1135.6418,94.7031 C1135.7668,94.5469 1135.7981,94.3906 1135.7981,93.9375 L1135.7981,92.0156 C1135.7981,91.8594 1135.7981,91.8125 1135.7825,91.6563 C1135.72,91.1875 1135.4075,90.875 1134.9543,90.875 C1134.7043,90.875 1134.4387,91.0156 1134.2668,91.2344 C1134.1575,91.4063 1134.1262,91.5625 1134.1262,92.0156 L1134.1262,92.1406 L1132.6731,92.1406 L1132.6731,89.7344 L1136.6575,89.7344 L1136.6575,90.5938 C1136.6575,91 1136.6887,91.1719 1136.7668,91.3281 C1136.9387,91.5781 1137.22,91.7344 1137.5012,91.7344 C1137.7668,91.7344 1138.0325,91.5938 1138.2043,91.375 C1138.3137,91.2031 1138.345,91.0625 1138.345,90.5938 L1138.345,88.0469 L1130.72,88.0469 C1130.2825,88.0469 1130.1575,88.0625 1130.0012,88.1563 C1129.7512,88.3125 1129.595,88.6094 1129.595,88.8906 C1129.595,89.1719 1129.7356,89.4219 1129.9543,89.5938 C1130.1106,89.7031 1130.2981,89.7344 1130.72,89.7344 L1130.97,89.7344 L1130.97,96.25 L1130.72,96.25 C1130.3137,96.25 1130.1575,96.2656 1130.0012,96.375 C1129.7512,96.5469 1129.595,96.8125 1129.595,97.1094 C1129.595,97.375 1129.7356,97.625 1129.9543,97.7813 C1130.095,97.9063 1130.3293,97.9531 1130.72,97.9531 L1138.72,97.9531 L1138.72,95.375 C1138.72,94.9375 1138.6887,94.7969 1138.6106,94.6406 C1138.4387,94.3906 1138.1575,94.2344 1137.8762,94.2344 C1137.6106,94.2344 1137.345,94.3438 1137.1731,94.5938 C1137.0637,94.75 1137.0325,94.8906 1137.0325,95.375 L1137.0325,96.25 L1132.6731,96.25 L1132.6731,93.8281 Z " fill="#000000"/><text fill="#000000" font-family="sans-serif" font-size="12" lengthAdjust="spacing" textLength="31" x="1147.8762" y="97.1074">Panel</text><line style="stroke:#A80036;stroke-width:1.5;" x1="1119.8762" x2="1180.8762" y1="108.9531" y2="108.9531"/><text fill="#000000" font-family="sans-serif" font-size="11" lengthAdjust="spacing" textLength="21" x="1124.8762" y="123.1636">Top</text><text fill="#000000" font-family="sans-serif" font-size="11" lengthAdjust="spacing" textLength="22" x="1124.8762" y="135.9683">Left</text><text fill="#000000" font-family="sans-serif" font-size="11" lengthAdjust="spacing" textLength="28" x="1124.8762" y="148.7729">Right</text><text fill="#000000" font-family="sans-serif" font-size="11" lengthAdjust="spacing" textLength="41" x="1124.8762" y="161.5776">Bottom</text><line style="stroke:#A80036;stroke-width:1.5;" x1="1119.8762" x2="1180.8762" y1="168.1719" y2="168.1719"/><!--MD5=[f8e7078f77c005d15b486c0c98deb1e6]
class Action--><rect codeLine="107" fill="#FEFECE" filter="url(#fk97d6i2c1e3o)" height="86.4141" id="Action" style="stroke:#A80036;stroke-width:1.5;" width="87" x="1216.8762" y="83.4531"/><ellipse cx="1239.9762" cy="99.4531" fill="#EB937F" rx="11" ry="11" style="stroke:#A80036;stroke-width:1.0;"/><path d="M1238.7731,100.3281 L1240.2262,100.3281 L1240.2262,100.4375 C1240.2262,100.8438 1240.2574,101 1240.3356,101.1563 C1240.4918,101.4063 1240.7731,101.5625 1241.0699,101.5625 C1241.3199,101.5625 1241.5856,101.4219 1241.7418,101.2031 C1241.8668,101.0469 1241.8981,100.8906 1241.8981,100.4375 L1241.8981,98.5156 C1241.8981,98.3594 1241.8981,98.3125 1241.8824,98.1563 C1241.8199,97.6875 1241.5074,97.375 1241.0543,97.375 C1240.8043,97.375 1240.5387,97.5156 1240.3668,97.7344 C1240.2574,97.9063 1240.2262,98.0625 1240.2262,98.5156 L1240.2262,98.6406 L1238.7731,98.6406 L1238.7731,96.2344 L1242.7574,96.2344 L1242.7574,97.0938 C1242.7574,97.5 1242.7887,97.6719 1242.8668,97.8281 C1243.0387,98.0781 1243.3199,98.2344 1243.6012,98.2344 C1243.8668,98.2344 1244.1324,98.0938 1244.3043,97.875 C1244.4137,97.7031 1244.4449,97.5625 1244.4449,97.0938 L1244.4449,94.5469 L1236.8199,94.5469 C1236.3824,94.5469 1236.2574,94.5625 1236.1012,94.6563 C1235.8512,94.8125 1235.6949,95.1094 1235.6949,95.3906 C1235.6949,95.6719 1235.8356,95.9219 1236.0543,96.0938 C1236.2106,96.2031 1236.3981,96.2344 1236.8199,96.2344 L1237.0699,96.2344 L1237.0699,102.75 L1236.8199,102.75 C1236.4137,102.75 1236.2574,102.7656 1236.1012,102.875 C1235.8512,103.0469 1235.6949,103.3125 1235.6949,103.6094 C1235.6949,103.875 1235.8356,104.125 1236.0543,104.2813 C1236.1949,104.4063 1236.4293,104.4531 1236.8199,104.4531 L1244.8199,104.4531 L1244.8199,101.875 C1244.8199,101.4375 1244.7887,101.2969 1244.7106,101.1406 C1244.5387,100.8906 1244.2574,100.7344 1243.9762,100.7344 C1243.7106,100.7344 1243.4449,100.8438 1243.2731,101.0938 C1243.1637,101.25 1243.1324,101.3906 1243.1324,101.875 L1243.1324,102.75 L1238.7731,102.75 L1238.7731,100.3281 Z " fill="#000000"/><text fill="#000000" font-family="sans-serif" font-size="12" lengthAdjust="spacing" textLength="37" x="1255.7762" y="103.6074">Action</text><line style="stroke:#A80036;stroke-width:1.5;" x1="1217.8762" x2="1302.8762" y1="115.4531" y2="115.4531"/><text fill="#000000" font-family="sans-serif" font-size="11" lengthAdjust="spacing" textLength="35" x="1222.8762" y="129.6636">Attack</text><text fill="#000000" font-family="sans-serif" font-size="11" lengthAdjust="spacing" textLength="75" x="1222.8762" y="142.4683">MoveForward</text><text fill="#000000" font-family="sans-serif" font-size="11" lengthAdjust="spacing" textLength="30" x="1222.8762" y="155.2729">None</text><line style="stroke:#A80036;stroke-width:1.5;" x1="1217.8762" x2="1302.8762" y1="161.8672" y2="161.8672"/><!--MD5=[368deceb10b85c85f640467e307a4869]
reverse link Troup to Fantassin--><path codeLine="113" d="M660.5352,997.5101 C692.7282,1053.2361 729.2332,1116.4271 750.1582,1152.6481 " fill="none" id="Troup-backto-Fantassin" style="stroke:#A80036;stroke-width:1.0;"/><polygon fill="none" points="654.4252,1000.9291,650.4822,980.1091,666.5482,993.9261,654.4252,1000.9291" style="stroke:#A80036;stroke-width:1.0;"/><!--MD5=[b003386709e6ada55bb90780a4cdaf20]
reverse link Troup to SuperSoldier--><path codeLine="114" d="M597.5322,1000.4331 C598.1252,1058.9601 598.7942,1124.9901 599.1402,1159.1651 " fill="none" id="Troup-backto-SuperSoldier" style="stroke:#A80036;stroke-width:1.0;"/><polygon fill="none" points="590.5292,1000.1791,597.3262,980.1091,604.5282,1000.0371,590.5292,1000.1791" style="stroke:#A80036;stroke-width:1.0;"/><!--MD5=[1e0336d30d132e60f7d14bcee7c666fb]
reverse link Troup to Archer--><path codeLine="115" d="M420.1442,991.8861 C392.7222,1011.8421 365.7672,1033.7861 342.3772,1056.9531 C313.2892,1085.7631 287.8982,1125.6931 272.3902,1152.7161 " fill="none" id="Troup-backto-Archer" style="stroke:#A80036;stroke-width:1.0;"/><polygon fill="none" points="416.4282,985.9391,436.7832,980.0501,424.5432,997.3471,416.4282,985.9391" style="stroke:#A80036;stroke-width:1.0;"/><!--MD5=[a41b2a99f9314e5f539bfcdb782b9533]
reverse link Troup to Catapult--><path codeLine="116" d="M535.3972,997.8711 C504.9472,1053.5091 470.4692,1116.5051 450.6892,1152.6481 " fill="none" id="Troup-backto-Catapult" style="stroke:#A80036;stroke-width:1.0;"/><polygon fill="none" points="529.3762,994.2931,545.1192,980.1091,541.6572,1001.0141,529.3762,994.2931" style="stroke:#A80036;stroke-width:1.0;"/><!--MD5=[ba47c04cb6e6cab7a887cf4cad3f8eec]
reverse link GridCase to HomeCase--><path codeLine="117" d="M499.4722,702.5731 C456.5052,727.8931 411.7752,757.9131 374.3772,790.9531 C188.5123,955.1561 6,1123.3611 169.3767,1309.9531 C218.0222,1365.5103 702.8582,1402.9437 916.8132,1416.8834 " fill="none" id="GridCase-backto-HomeCase" style="stroke:#A80036;stroke-width:1.0;"/><polygon fill="none" points="495.9692,696.5121,516.7872,692.5601,502.9772,708.6321,495.9692,696.5121" style="stroke:#A80036;stroke-width:1.0;"/><!--MD5=[5f50cc9252ff11bc7088f96fb72f766e]
reverse link Health to Troup--><path codeLine="118" d="M1183.9362,680.9141 C1166.1262,693.1551 1146.6862,705.0011 1127.3762,713.9531 C1002.8842,771.6781 958.7392,748.1021 828.3772,790.9531 C819.4042,793.9021 810.2812,797.0261 801.0982,800.2721 " fill="none" id="Health-backto-Troup" style="stroke:#A80036;stroke-width:1.0;"/><polygon fill="none" points="1180.0962,675.0511,1200.4462,669.1381,1188.2262,686.4491,1180.0962,675.0511" style="stroke:#A80036;stroke-width:1.0;"/><!--MD5=[b8de8e8c2d34987b961c72d03d2e48d0]
reverse link Health to HomeCase--><path codeLine="119" d="M1267.1162,689.3211 C1278.4062,819.7661 1286.9762,1107.8901 1172.3762,1309.9531 C1153.9762,1342.3961 1122.0062,1368.0808 1091.8662,1386.7104 " fill="none" id="Health-backto-HomeCase" style="stroke:#A80036;stroke-width:1.0;"/><polygon fill="none" points="1260.1162,689.6071,1265.2262,669.0431,1274.0562,688.3071,1260.1162,689.6071" style="stroke:#A80036;stroke-width:1.0;"/><!--MD5=[a4becfb276489fc5522a8d3ffe301247]
link Game to Grid--><path codeLine="121" d="M867.2902,225.2331 C848.9842,254.5331 829.4222,285.8431 812.9932,312.1431 " fill="none" id="Game-Grid" style="stroke:#A80036;stroke-width:1.0;"/><text fill="#000000" font-family="sans-serif" font-size="13" lengthAdjust="spacing" textLength="31" x="847.3772" y="268.02">_grid</text><text fill="#000000" font-family="sans-serif" font-size="13" lengthAdjust="spacing" textLength="8" x="854.7138" y="244.7827">1</text><text fill="#000000" font-family="sans-serif" font-size="13" lengthAdjust="spacing" textLength="8" x="808.7793" y="301.5365">1</text><!--MD5=[7097ac6fc1fcdb4b130fcdb2d13eddb0]
link Game to Console--><path codeLine="122" d="M773.0672,202.0831 C707.1572,233.7531 630.6312,270.5231 565.3162,301.9031 " fill="none" id="Game-Console" style="stroke:#A80036;stroke-width:1.0;"/><text fill="#000000" font-family="sans-serif" font-size="13" lengthAdjust="spacing" textLength="56" x="657.3772" y="268.02">_console</text><text fill="#000000" font-family="sans-serif" font-size="13" lengthAdjust="spacing" textLength="8" x="757.3506" y="202.4569">1</text><text fill="#000000" font-family="sans-serif" font-size="13" lengthAdjust="spacing" textLength="8" x="572.3662" y="290.6891">1</text><!--MD5=[6b6b9e8ceff4e9e58f06e15491e15318]
link Game to Player--><path codeLine="123" d="M1032.0922,225.2431 C1065.6472,267.1131 1094.3772,319.0031 1094.3772,373.9531 C1094.3772,373.9531 1094.3772,373.9531 1094.3772,886.4531 C1094.3772,943.5351 1080.7992,1004.8721 1065.0462,1056.8251 " fill="none" id="Game-Player" style="stroke:#A80036;stroke-width:1.0;"/><text fill="#000000" font-family="sans-serif" font-size="13" lengthAdjust="spacing" textLength="23" x="1095.3772" y="624.02">_p1</text><text fill="#000000" font-family="sans-serif" font-size="13" lengthAdjust="spacing" textLength="8" x="1031.1034" y="244.7934">1</text><text fill="#000000" font-family="sans-serif" font-size="13" lengthAdjust="spacing" textLength="8" x="1059.7073" y="1045.7264">1</text><!--MD5=[6b6b9e8ceff4e9e58f06e15491e15318]
link Game to Player--><path codeLine="124" d="M950.3852,225.3531 C955.3232,250.2331 960.0712,276.9931 963.3772,301.9531 C998.7842,569.3581 1011.0312,885.5851 1015.2272,1056.8861 " fill="none" id="Game-Player-1" style="stroke:#A80036;stroke-width:1.0;"/><text fill="#000000" font-family="sans-serif" font-size="13" lengthAdjust="spacing" textLength="23" x="1001.3772" y="624.02">_p2</text><text fill="#000000" font-family="sans-serif" font-size="13" lengthAdjust="spacing" textLength="8" x="943.6514" y="244.9112">1</text><text fill="#000000" font-family="sans-serif" font-size="13" lengthAdjust="spacing" textLength="8" x="1006.8524" y="1045.7912">1</text><!--MD5=[dbcc1b7d6efa008d20850c17839fbbeb]
link Player to HomeCase--><path codeLine="125" d="M1017.3772,1309.9891 C1017.3772,1338.1571 1017.3772,1365.8556 1017.3772,1386.7756 " fill="none" id="Player-HomeCase" style="stroke:#A80036;stroke-width:1.0;"/><text fill="#000000" font-family="sans-serif" font-size="13" lengthAdjust="spacing" textLength="85" x="1018.3772" y="1353.02">_playerHome</text><text fill="#000000" font-family="sans-serif" font-size="13" lengthAdjust="spacing" textLength="8" x="1009.1459" y="1329.8124">1</text><text fill="#000000" font-family="sans-serif" font-size="13" lengthAdjust="spacing" textLength="8" x="1008.6647" y="1375.931">1</text><!--MD5=[4ef74f20e27a1c236c92c69c84bb43fa]
link Grid to GridCase--><path codeLine="126" d="M746.2232,437.4631 C734.0842,463.9801 719.6182,495.5841 706.1972,524.9041 " fill="none" id="Grid-GridCase" style="stroke:#A80036;stroke-width:1.0;"/><text fill="#000000" font-family="sans-serif" font-size="13" lengthAdjust="spacing" textLength="70" x="726.3772" y="491.02">_gridCases</text><text fill="#000000" font-family="sans-serif" font-size="13" lengthAdjust="spacing" textLength="8" x="734.7064" y="457.204">1</text><text fill="#000000" font-family="sans-serif" font-size="13" lengthAdjust="spacing" textLength="23" x="685.693" y="513.8502">2..*</text><!--MD5=[1ca66fae00146db8a5d38d1d7d50d902]
link GridCase to Troup--><path codeLine="127" d="M639.5662,714.2731 C633.2472,739.1711 626.4252,766.0531 620.1102,790.9351 " fill="none" id="GridCase-Troup" style="stroke:#A80036;stroke-width:1.0;"/><text fill="#000000" font-family="sans-serif" font-size="13" lengthAdjust="spacing" textLength="31" x="632.3772" y="757.02">_unit</text><text fill="#000000" font-family="sans-serif" font-size="13" lengthAdjust="spacing" textLength="8" x="629.5238" y="733.8645">1</text><text fill="#000000" font-family="sans-serif" font-size="13" lengthAdjust="spacing" textLength="24" x="597.0452" y="779.8837">0..1</text><!--MD5=[bce3f919a0bd598c9168db26ac25a492]
link Troup to Player--><path codeLine="128" d="M722.0942,980.0391 C746.2362,996.4881 771.6972,1012.8381 796.3772,1026.9531 C824.3472,1042.9501 834.9682,1040.0121 862.3772,1056.9531 C868.1202,1060.5031 873.8872,1064.2401 879.6422,1068.1161 " fill="none" id="Troup-Player" style="stroke:#A80036;stroke-width:1.0;"/><text fill="#000000" font-family="sans-serif" font-size="13" lengthAdjust="spacing" textLength="47" x="797.3772" y="1023.02">_owner</text><text fill="#000000" font-family="sans-serif" font-size="13" lengthAdjust="spacing" textLength="8" x="723.4132" y="999.9327">1</text><text fill="#000000" font-family="sans-serif" font-size="13" lengthAdjust="spacing" textLength="8" x="863.8911" y="1058.4724">1</text><!--MD5=[4b8c35e60789aa96e25745cb924d9f24]
link Player to GridCase--><path codeLine="129" d="M940.1952,1056.9391 C925.6952,1031.7701 911.1072,1005.2731 898.3772,979.9531 C857.4042,898.4581 867.5312,867.7911 818.3772,790.9531 C801.3462,764.3311 780.0662,737.9031 758.7812,714.0851 " fill="none" id="Player-GridCase" style="stroke:#A80036;stroke-width:1.0;"/><text fill="#000000" font-family="sans-serif" font-size="13" lengthAdjust="spacing" textLength="91" x="899.3772" y="890.02">_playerTroups</text><text fill="#000000" font-family="sans-serif" font-size="13" lengthAdjust="spacing" textLength="24" x="910.7607" y="1045.8474">0..1</text><text fill="#000000" font-family="sans-serif" font-size="13" lengthAdjust="spacing" textLength="23" x="742.2051" y="733.9823">0..*</text><!--MD5=[a80427d44965ad3ce1258501752309bd]
@startuml
title UML - Projet C++ CLIAgeOfWar

class Game {
    - int _maxTurnLimit
    - int _earnings
    - int _currentTurn
    - string _consoleHeader
    __
    - void initializeGame(int gridSize)
    - void displayPlayer()
    ..
    + Game(int gridSize, int maxTurnLimit, int earnings)
    + void turn()
    + void play(Player* p)
    + void resolveActions(Player* p)
    + Console& getConsole()
}
class Console {
    - map<Panel, vector<string>> _panels
    __
    - int getMaxChar()
    ..
    + Console()
    + void addToPanel(string toAppend, Panel position)
    + void display()
    + void clear()
    + string prompt(string message, bool ignore)
}
abstract class Troup {
    # int _cost
    # int _damage
    # vector<vector<int> _reach
    # map<int, Action> _actions
    + int getCost()
    + int getDamage()
    + Player* getOwner()
    + Action getAction(int phase)
    + GridCase* canAttack(Grid* grid, int casePosition, int moveDirection)
    + string attack(Grid* grid, GridCase* target)
    + {abstract} string getName(bool isShort)
}
class Grid {
    - int _gridSize
    + Grid(const int gridSize, Player& p1, Player& p2)
    + void display(Console& console, Player& p1, Player& p2)
    + int getGridSize()
    + vector<GridCase*>& getAllCases()
    + GridCase* find(int position)
}
class GridCase {
    - int position
    - bool _filled
    + GridCase(int position)
    + bool placeUnit(Troup* unit)
    + bool isEmpty()
    + string getTroupName(bool isShort)
    + Troup* getUnit()
    + Player* getUnitOwner()
    + Action getUnitAction(int phase)
    + void transferTroupToCase(GridCase* gridCase)
    + bool suffersAttack(int damage)
}
class HomeCase {
    + HomeCase(int position)
    + bool suffersAttack(int damage)
}
abstract class Health {
    # int _initialHealth
    # int _currentHealth
    + int getCurrentHealth()
    + void removeHealth(int damage)
}
class Fantassin {
    Fantassin(Player* player)
}
class Archer {
    Archer(Player* player)
}
class Catapult {
    Catapult(Player* player)
}
class SuperSoldier
class Player {
    - string _playerName
    - int _playerId
    - int _coins
    - {static} int _playerNumber
    + Player(HomeCase &homeCase)
    + string displayStr()
    + void initialize(Console console)
    + string getFirstLetter()
    + string getName()
    + void incrementCoins(int coins)
    + void decrementCoins(int coins)
    + bool isKO()
    + bool canPlaceTroup()
    + void placeTroupOnHomeCase(Troup* troup)
    + GridCase& getHomeCase()
    + int getCoins()
}
enum Panel {
  Top
  Left
  Right
  Bottom
}
enum Action {
  Attack
  MoveForward
  None
}

Troup <|- - Fantassin
Troup <|- - SuperSoldier
Troup <|- - Archer
Troup <|- - Catapult
GridCase <|- - HomeCase
Health <|- - Troup
Health <|- - HomeCase

Game "1" - - "1" Grid : _grid
Game "1" - - "1" Console : _console
Game "1" - - "1" Player : _p1
Game "1" - - "1" Player : _p2
Player "1" - - "1" HomeCase : _playerHome
Grid "1"  - - "2..*" GridCase : _gridCases
GridCase "1"  - - "0..1" Troup : _unit
Troup "1"  - - "1" Player : _owner
Player "0..1"  - - "0..*" GridCase : _playerTroups
@enduml

PlantUML version 1.2021.01beta7(Unknown compile time)
(GPL source distribution)
Java Runtime: Java(TM) SE Runtime Environment
JVM: Java HotSpot(TM) 64-Bit Server VM
Default Encoding: UTF-8
Language: en
Country: US
--></g></svg>