<?xml version="1.0" encoding="UTF-8" standalone="no"?><svg xmlns="http://www.w3.org/2000/svg" xmlns:xlink="http://www.w3.org/1999/xlink" contentScriptType="application/ecmascript" contentStyleType="text/css" height="1409px" preserveAspectRatio="none" style="width:1316px;height:1409px;" version="1.1" viewBox="0 0 1316 1409" width="1316px" zoomAndPan="magnify"><defs><filter height="300%" id="f1dx3rdmp0womr" width="300%" x="-1" y="-1"><feGaussianBlur result="blurOut" stdDeviation="2.0"/><feColorMatrix in="blurOut" result="blurOut2" type="matrix" values="0 0 0 0 0 0 0 0 0 0 0 0 0 0 0 0 0 0 .4 0"/><feOffset dx="4.0" dy="4.0" in="blurOut2" result="blurOut3"/><feBlend in="SourceGraphic" in2="blurOut3" mode="normal"/></filter></defs><g><text fill="#000000" font-family="sans-serif" font-size="18" lengthAdjust="spacing" textLength="162" x="570.511" y="16.708">UML - Projet C++</text><!--MD5=[b6dcce5e5ef3c84b0b048d11301373dd]
class Game--><rect codeLine="3" fill="#FEFECE" filter="url(#f1dx3rdmp0womr)" height="196.8516" id="Game" style="stroke:#A80036;stroke-width:1.5;" width="310" x="771.018" y="27.9531"/><ellipse cx="904.268" cy="43.9531" fill="#ADD1B2" rx="11" ry="11" style="stroke:#A80036;stroke-width:1.0;"/><path d="M906.6118,39.625 C905.6743,39.1875 905.0805,39.0469 904.2055,39.0469 C901.5805,39.0469 899.5805,41.125 899.5805,43.8438 L899.5805,44.9688 C899.5805,47.5469 901.6899,49.4375 904.5805,49.4375 C905.7993,49.4375 906.9555,49.1406 907.7055,48.5938 C908.2836,48.1875 908.6118,47.7344 908.6118,47.3438 C908.6118,46.8906 908.2211,46.5 907.7524,46.5 C907.5336,46.5 907.3305,46.5781 907.143,46.7656 C906.6899,47.25 906.6899,47.25 906.5024,47.3438 C906.0805,47.6094 905.393,47.7344 904.6274,47.7344 C902.5805,47.7344 901.2836,46.6406 901.2836,44.9375 L901.2836,43.8438 C901.2836,42.0625 902.5336,40.75 904.268,40.75 C904.8461,40.75 905.4555,40.9063 905.9243,41.1563 C906.4086,41.4375 906.5805,41.6563 906.6743,42.0625 C906.7368,42.4688 906.768,42.5938 906.9086,42.7188 C907.0493,42.8594 907.2836,42.9688 907.5024,42.9688 C907.768,42.9688 908.0336,42.8281 908.2055,42.6094 C908.3149,42.4531 908.3461,42.2656 908.3461,41.8438 L908.3461,40.4219 C908.3461,39.9844 908.3305,39.8594 908.2368,39.7031 C908.0805,39.4375 907.7993,39.2969 907.5024,39.2969 C907.2055,39.2969 907.0024,39.3906 906.7836,39.7031 L906.6118,39.625 Z " fill="#000000"/><text fill="#000000" font-family="sans-serif" font-size="12" lengthAdjust="spacing" textLength="35" x="924.768" y="48.1074">Game</text><line style="stroke:#A80036;stroke-width:1.5;" x1="772.018" x2="1080.018" y1="59.9531" y2="59.9531"/><rect fill="none" height="6" style="stroke:#C82930;stroke-width:1.0;" width="6" x="779.018" y="67.9531"/><text fill="#000000" font-family="sans-serif" font-size="11" lengthAdjust="spacing" textLength="101" x="791.018" y="74.1636">int _maxTurnLimit</text><rect fill="none" height="6" style="stroke:#C82930;stroke-width:1.0;" width="6" x="779.018" y="80.7578"/><text fill="#000000" font-family="sans-serif" font-size="11" lengthAdjust="spacing" textLength="73" x="791.018" y="86.9683">int _earnings</text><rect fill="none" height="6" style="stroke:#C82930;stroke-width:1.0;" width="6" x="779.018" y="93.5625"/><text fill="#000000" font-family="sans-serif" font-size="11" lengthAdjust="spacing" textLength="89" x="791.018" y="99.7729">int _currentTurn</text><rect fill="none" height="6" style="stroke:#C82930;stroke-width:1.0;" width="6" x="779.018" y="106.3672"/><text fill="#000000" font-family="sans-serif" font-size="11" lengthAdjust="spacing" textLength="127" x="791.018" y="112.5776">string _consoleHeader</text><line style="stroke:#A80036;stroke-width:1.5;" x1="772.018" x2="1080.018" y1="119.1719" y2="119.1719"/><rect fill="#F24D5C" height="6" style="stroke:#C82930;stroke-width:1.0;" width="6" x="779.018" y="127.1719"/><text fill="#000000" font-family="sans-serif" font-size="11" lengthAdjust="spacing" textLength="184" x="791.018" y="133.3823">void initializeGame(int gridSize)</text><rect fill="#F24D5C" height="6" style="stroke:#C82930;stroke-width:1.0;" width="6" x="779.018" y="139.9766"/><text fill="#000000" font-family="sans-serif" font-size="11" lengthAdjust="spacing" textLength="111" x="791.018" y="146.187">void displayPlayer()</text><line style="stroke:#A80036;stroke-width:1.0;stroke-dasharray:1.0,2.0;" x1="772.018" x2="1080.018" y1="152.7813" y2="152.7813"/><ellipse cx="782.018" cy="163.7813" fill="#84BE84" rx="3" ry="3" style="stroke:#038048;stroke-width:1.0;"/><text fill="#000000" font-family="sans-serif" font-size="11" lengthAdjust="spacing" textLength="284" x="791.018" y="166.9917">Game(int gridSize, int maxTurnLimit, int earnings)</text><ellipse cx="782.018" cy="176.5859" fill="#84BE84" rx="3" ry="3" style="stroke:#038048;stroke-width:1.0;"/><text fill="#000000" font-family="sans-serif" font-size="11" lengthAdjust="spacing" textLength="58" x="791.018" y="179.7964">void turn()</text><ellipse cx="782.018" cy="189.3906" fill="#84BE84" rx="3" ry="3" style="stroke:#038048;stroke-width:1.0;"/><text fill="#000000" font-family="sans-serif" font-size="11" lengthAdjust="spacing" textLength="112" x="791.018" y="192.6011">void play(Player* p)</text><ellipse cx="782.018" cy="202.1953" fill="#84BE84" rx="3" ry="3" style="stroke:#038048;stroke-width:1.0;"/><text fill="#000000" font-family="sans-serif" font-size="11" lengthAdjust="spacing" textLength="172" x="791.018" y="205.4058">void resolveActions(Player* p)</text><ellipse cx="782.018" cy="215" fill="#84BE84" rx="3" ry="3" style="stroke:#038048;stroke-width:1.0;"/><text fill="#000000" font-family="sans-serif" font-size="11" lengthAdjust="spacing" textLength="132" x="791.018" y="218.2104">Console&amp; getConsole()</text><!--MD5=[315b61b427ec618d6861d47eee00cca3]
class Console--><rect codeLine="18" fill="#FEFECE" filter="url(#f1dx3rdmp0womr)" height="145.6328" id="Console" style="stroke:#A80036;stroke-width:1.5;" width="304" x="261.018" y="301.9531"/><ellipse cx="384.268" cy="317.9531" fill="#ADD1B2" rx="11" ry="11" style="stroke:#A80036;stroke-width:1.0;"/><path d="M386.6118,313.625 C385.6743,313.1875 385.0805,313.0469 384.2055,313.0469 C381.5805,313.0469 379.5805,315.125 379.5805,317.8438 L379.5805,318.9688 C379.5805,321.5469 381.6899,323.4375 384.5805,323.4375 C385.7993,323.4375 386.9555,323.1406 387.7055,322.5938 C388.2836,322.1875 388.6118,321.7344 388.6118,321.3438 C388.6118,320.8906 388.2211,320.5 387.7524,320.5 C387.5336,320.5 387.3305,320.5781 387.143,320.7656 C386.6899,321.25 386.6899,321.25 386.5024,321.3438 C386.0805,321.6094 385.393,321.7344 384.6274,321.7344 C382.5805,321.7344 381.2836,320.6406 381.2836,318.9375 L381.2836,317.8438 C381.2836,316.0625 382.5336,314.75 384.268,314.75 C384.8461,314.75 385.4555,314.9063 385.9243,315.1563 C386.4086,315.4375 386.5805,315.6563 386.6743,316.0625 C386.7368,316.4688 386.768,316.5938 386.9086,316.7188 C387.0493,316.8594 387.2836,316.9688 387.5024,316.9688 C387.768,316.9688 388.0336,316.8281 388.2055,316.6094 C388.3149,316.4531 388.3461,316.2656 388.3461,315.8438 L388.3461,314.4219 C388.3461,313.9844 388.3305,313.8594 388.2368,313.7031 C388.0805,313.4375 387.7993,313.2969 387.5024,313.2969 C387.2055,313.2969 387.0024,313.3906 386.7836,313.7031 L386.6118,313.625 Z " fill="#000000"/><text fill="#000000" font-family="sans-serif" font-size="12" lengthAdjust="spacing" textLength="49" x="404.768" y="322.1074">Console</text><line style="stroke:#A80036;stroke-width:1.5;" x1="262.018" x2="564.018" y1="333.9531" y2="333.9531"/><rect fill="none" height="6" style="stroke:#C82930;stroke-width:1.0;" width="6" x="269.018" y="341.9531"/><text fill="#000000" font-family="sans-serif" font-size="11" lengthAdjust="spacing" textLength="214" x="281.018" y="348.1636">map&lt;Panel, vector&lt;string&gt;&gt; _panels</text><line style="stroke:#A80036;stroke-width:1.5;" x1="262.018" x2="564.018" y1="354.7578" y2="354.7578"/><rect fill="#F24D5C" height="6" style="stroke:#C82930;stroke-width:1.0;" width="6" x="269.018" y="362.7578"/><text fill="#000000" font-family="sans-serif" font-size="11" lengthAdjust="spacing" textLength="94" x="281.018" y="368.9683">int getMaxChar()</text><line style="stroke:#A80036;stroke-width:1.0;stroke-dasharray:1.0,2.0;" x1="262.018" x2="564.018" y1="375.5625" y2="375.5625"/><ellipse cx="272.018" cy="386.5625" fill="#84BE84" rx="3" ry="3" style="stroke:#038048;stroke-width:1.0;"/><text fill="#000000" font-family="sans-serif" font-size="11" lengthAdjust="spacing" textLength="54" x="281.018" y="389.7729">Console()</text><ellipse cx="272.018" cy="399.3672" fill="#84BE84" rx="3" ry="3" style="stroke:#038048;stroke-width:1.0;"/><text fill="#000000" font-family="sans-serif" font-size="11" lengthAdjust="spacing" textLength="278" x="281.018" y="402.5776">void addToPanel(string toAppend, Panel position)</text><ellipse cx="272.018" cy="412.1719" fill="#84BE84" rx="3" ry="3" style="stroke:#038048;stroke-width:1.0;"/><text fill="#000000" font-family="sans-serif" font-size="11" lengthAdjust="spacing" textLength="76" x="281.018" y="415.3823">void display()</text><ellipse cx="272.018" cy="424.9766" fill="#84BE84" rx="3" ry="3" style="stroke:#038048;stroke-width:1.0;"/><text fill="#000000" font-family="sans-serif" font-size="11" lengthAdjust="spacing" textLength="64" x="281.018" y="428.187">void clear()</text><ellipse cx="272.018" cy="437.7813" fill="#84BE84" rx="3" ry="3" style="stroke:#038048;stroke-width:1.0;"/><text fill="#000000" font-family="sans-serif" font-size="11" lengthAdjust="spacing" textLength="171" x="281.018" y="440.9917">string prompt(string message)</text><!--MD5=[8826dd0c6745c30c34898aa603e59f4f]
class Troup--><rect codeLine="29" fill="#FEFECE" filter="url(#f1dx3rdmp0womr)" height="163.2422" id="Troup" style="stroke:#A80036;stroke-width:1.5;" width="188" x="593.018" y="764.9531"/><ellipse cx="665.268" cy="780.9531" fill="#A9DCDF" rx="11" ry="11" style="stroke:#A80036;stroke-width:1.0;"/><path d="M667.3461,782.7656 L667.7368,783.75 L667.3461,783.75 C666.893,783.75 666.7836,783.7656 666.6274,783.875 C666.3774,784.0313 666.2211,784.3125 666.2211,784.6094 C666.2211,784.875 666.3618,785.125 666.5805,785.2813 C666.7211,785.4063 666.9243,785.4531 667.3461,785.4531 L669.7055,785.4531 C670.0649,785.4531 670.2836,785.4219 670.4243,785.3281 C670.6743,785.1875 670.8305,784.8906 670.8305,784.6094 C670.8305,784.3281 670.6899,784.0781 670.4711,783.9219 C670.2993,783.7813 670.143,783.75 669.6743,783.75 L666.2836,775.5469 L662.6118,775.5469 C662.1586,775.5469 662.0336,775.5625 661.8774,775.6563 C661.6274,775.8281 661.4711,776.1094 661.4711,776.3906 C661.4711,776.6719 661.6118,776.9219 661.8305,777.0938 C662.0024,777.2031 662.1743,777.2344 662.6118,777.2344 L663.6899,777.2344 L661.0493,783.75 C660.6274,783.75 660.4711,783.7656 660.3149,783.875 C660.0649,784.0313 659.9086,784.3125 659.9086,784.6094 C659.9086,785.1719 660.2836,785.4531 661.0336,785.4531 L663.2993,785.4531 C663.6586,785.4531 663.8774,785.4219 664.0024,785.3281 C664.268,785.1875 664.4086,784.8906 664.4086,784.6094 C664.4086,784.3281 664.2836,784.0781 664.0649,783.9063 C663.893,783.7813 663.7524,783.75 663.2993,783.75 L662.9086,783.75 L663.2993,782.7656 L667.3461,782.7656 Z M666.643,781.0625 L663.9711,781.0625 L665.3149,777.7969 L666.643,781.0625 Z " fill="#000000"/><text fill="#000000" font-family="sans-serif" font-size="12" font-style="italic" lengthAdjust="spacing" textLength="35" x="685.768" y="785.1074">Troup</text><line style="stroke:#A80036;stroke-width:1.5;" x1="594.018" x2="780.018" y1="796.9531" y2="796.9531"/><polygon fill="none" points="604.018,802.9531,608.018,806.9531,604.018,810.9531,600.018,806.9531" style="stroke:#B38D22;stroke-width:1.0;"/><text fill="#000000" font-family="sans-serif" font-size="11" lengthAdjust="spacing" textLength="47" x="613.018" y="811.1636">int _cost</text><polygon fill="none" points="604.018,815.7578,608.018,819.7578,604.018,823.7578,600.018,819.7578" style="stroke:#B38D22;stroke-width:1.0;"/><text fill="#000000" font-family="sans-serif" font-size="11" lengthAdjust="spacing" textLength="71" x="613.018" y="823.9683">int _damage</text><polygon fill="none" points="604.018,828.5625,608.018,832.5625,604.018,836.5625,600.018,832.5625" style="stroke:#B38D22;stroke-width:1.0;"/><text fill="#000000" font-family="sans-serif" font-size="11" lengthAdjust="spacing" textLength="155" x="613.018" y="836.7729">vector&lt;vector&lt;int&gt; _reach</text><polygon fill="none" points="604.018,841.3672,608.018,845.3672,604.018,849.3672,600.018,845.3672" style="stroke:#B38D22;stroke-width:1.0;"/><text fill="#000000" font-family="sans-serif" font-size="11" lengthAdjust="spacing" textLength="149" x="613.018" y="849.5776">map&lt;int, Action&gt; _actions</text><line style="stroke:#A80036;stroke-width:1.5;" x1="594.018" x2="780.018" y1="856.1719" y2="856.1719"/><ellipse cx="604.018" cy="867.1719" fill="#84BE84" rx="3" ry="3" style="stroke:#038048;stroke-width:1.0;"/><text fill="#000000" font-family="sans-serif" font-size="11" lengthAdjust="spacing" textLength="70" x="613.018" y="870.3823">int getCost()</text><ellipse cx="604.018" cy="879.9766" fill="#84BE84" rx="3" ry="3" style="stroke:#038048;stroke-width:1.0;"/><text fill="#000000" font-family="sans-serif" font-size="11" lengthAdjust="spacing" textLength="94" x="613.018" y="883.187">int getDamage()</text><ellipse cx="604.018" cy="892.7813" fill="#84BE84" rx="3" ry="3" style="stroke:#038048;stroke-width:1.0;"/><text fill="#000000" font-family="sans-serif" font-size="11" lengthAdjust="spacing" textLength="109" x="613.018" y="895.9917">Player* getOwner()</text><ellipse cx="604.018" cy="905.5859" fill="#84BE84" rx="3" ry="3" style="stroke:#038048;stroke-width:1.0;"/><text fill="#000000" font-family="sans-serif" font-size="11" lengthAdjust="spacing" textLength="154" x="613.018" y="908.7964">Action getAction(int phase)</text><ellipse cx="604.018" cy="918.3906" fill="#84BE84" rx="3" ry="3" style="stroke:#038048;stroke-width:1.0;"/><text fill="#000000" font-family="sans-serif" font-size="11" font-style="italic" lengthAdjust="spacing" textLength="162" x="613.018" y="921.6011">string getName(bool isShort)</text><!--MD5=[1f24f7b92150e3316908f7910ce81742]
class Grid--><rect codeLine="40" fill="#FEFECE" filter="url(#f1dx3rdmp0womr)" height="112.0234" id="Grid" style="stroke:#A80036;stroke-width:1.5;" width="343" x="600.518" y="318.9531"/><ellipse cx="755.268" cy="334.9531" fill="#ADD1B2" rx="11" ry="11" style="stroke:#A80036;stroke-width:1.0;"/><path d="M757.6118,330.625 C756.6743,330.1875 756.0805,330.0469 755.2055,330.0469 C752.5805,330.0469 750.5805,332.125 750.5805,334.8438 L750.5805,335.9688 C750.5805,338.5469 752.6899,340.4375 755.5805,340.4375 C756.7993,340.4375 757.9555,340.1406 758.7055,339.5938 C759.2836,339.1875 759.6118,338.7344 759.6118,338.3438 C759.6118,337.8906 759.2211,337.5 758.7524,337.5 C758.5336,337.5 758.3305,337.5781 758.143,337.7656 C757.6899,338.25 757.6899,338.25 757.5024,338.3438 C757.0805,338.6094 756.393,338.7344 755.6274,338.7344 C753.5805,338.7344 752.2836,337.6406 752.2836,335.9375 L752.2836,334.8438 C752.2836,333.0625 753.5336,331.75 755.268,331.75 C755.8461,331.75 756.4555,331.9063 756.9243,332.1563 C757.4086,332.4375 757.5805,332.6563 757.6743,333.0625 C757.7368,333.4688 757.768,333.5938 757.9086,333.7188 C758.0493,333.8594 758.2836,333.9688 758.5024,333.9688 C758.768,333.9688 759.0336,333.8281 759.2055,333.6094 C759.3149,333.4531 759.3461,333.2656 759.3461,332.8438 L759.3461,331.4219 C759.3461,330.9844 759.3305,330.8594 759.2368,330.7031 C759.0805,330.4375 758.7993,330.2969 758.5024,330.2969 C758.2055,330.2969 758.0024,330.3906 757.7836,330.7031 L757.6118,330.625 Z " fill="#000000"/><text fill="#000000" font-family="sans-serif" font-size="12" lengthAdjust="spacing" textLength="25" x="775.768" y="339.1074">Grid</text><line style="stroke:#A80036;stroke-width:1.5;" x1="601.518" x2="942.518" y1="350.9531" y2="350.9531"/><rect fill="none" height="6" style="stroke:#C82930;stroke-width:1.0;" width="6" x="608.518" y="358.9531"/><text fill="#000000" font-family="sans-serif" font-size="11" lengthAdjust="spacing" textLength="71" x="620.518" y="365.1636">int _gridSize</text><line style="stroke:#A80036;stroke-width:1.5;" x1="601.518" x2="942.518" y1="371.7578" y2="371.7578"/><ellipse cx="611.518" cy="382.7578" fill="#84BE84" rx="3" ry="3" style="stroke:#038048;stroke-width:1.0;"/><text fill="#000000" font-family="sans-serif" font-size="11" lengthAdjust="spacing" textLength="268" x="620.518" y="385.9683">Grid(const int gridSize, Player&amp; p1, Player&amp; p2)</text><ellipse cx="611.518" cy="395.5625" fill="#84BE84" rx="3" ry="3" style="stroke:#038048;stroke-width:1.0;"/><text fill="#000000" font-family="sans-serif" font-size="11" lengthAdjust="spacing" textLength="317" x="620.518" y="398.7729">void display(Console&amp; console, Player&amp; p1, Player&amp; p2)</text><ellipse cx="611.518" cy="408.3672" fill="#84BE84" rx="3" ry="3" style="stroke:#038048;stroke-width:1.0;"/><text fill="#000000" font-family="sans-serif" font-size="11" lengthAdjust="spacing" textLength="94" x="620.518" y="411.5776">int getGridSize()</text><ellipse cx="611.518" cy="421.1719" fill="#84BE84" rx="3" ry="3" style="stroke:#038048;stroke-width:1.0;"/><text fill="#000000" font-family="sans-serif" font-size="11" lengthAdjust="spacing" textLength="201" x="620.518" y="424.3823">vector&lt;GridCase*&gt;&amp; getAllCases()</text><!--MD5=[b496c9baaa1e1107bf940f89459e06f2]
class GridCase--><rect codeLine="47" fill="#FEFECE" filter="url(#f1dx3rdmp0womr)" height="163.2422" id="GridCase" style="stroke:#A80036;stroke-width:1.5;" width="221" x="608.518" y="524.9531"/><ellipse cx="687.268" cy="540.9531" fill="#ADD1B2" rx="11" ry="11" style="stroke:#A80036;stroke-width:1.0;"/><path d="M689.6118,536.625 C688.6743,536.1875 688.0805,536.0469 687.2055,536.0469 C684.5805,536.0469 682.5805,538.125 682.5805,540.8438 L682.5805,541.9688 C682.5805,544.5469 684.6899,546.4375 687.5805,546.4375 C688.7993,546.4375 689.9555,546.1406 690.7055,545.5938 C691.2836,545.1875 691.6118,544.7344 691.6118,544.3438 C691.6118,543.8906 691.2211,543.5 690.7524,543.5 C690.5336,543.5 690.3305,543.5781 690.143,543.7656 C689.6899,544.25 689.6899,544.25 689.5024,544.3438 C689.0805,544.6094 688.393,544.7344 687.6274,544.7344 C685.5805,544.7344 684.2836,543.6406 684.2836,541.9375 L684.2836,540.8438 C684.2836,539.0625 685.5336,537.75 687.268,537.75 C687.8461,537.75 688.4555,537.9063 688.9243,538.1563 C689.4086,538.4375 689.5805,538.6563 689.6743,539.0625 C689.7368,539.4688 689.768,539.5938 689.9086,539.7188 C690.0493,539.8594 690.2836,539.9688 690.5024,539.9688 C690.768,539.9688 691.0336,539.8281 691.2055,539.6094 C691.3149,539.4531 691.3461,539.2656 691.3461,538.8438 L691.3461,537.4219 C691.3461,536.9844 691.3305,536.8594 691.2368,536.7031 C691.0805,536.4375 690.7993,536.2969 690.5024,536.2969 C690.2055,536.2969 690.0024,536.3906 689.7836,536.7031 L689.6118,536.625 Z " fill="#000000"/><text fill="#000000" font-family="sans-serif" font-size="12" lengthAdjust="spacing" textLength="55" x="707.768" y="545.1074">GridCase</text><line style="stroke:#A80036;stroke-width:1.5;" x1="609.518" x2="828.518" y1="556.9531" y2="556.9531"/><rect fill="none" height="6" style="stroke:#C82930;stroke-width:1.0;" width="6" x="616.518" y="564.9531"/><text fill="#000000" font-family="sans-serif" font-size="11" lengthAdjust="spacing" textLength="62" x="628.518" y="571.1636">int position</text><rect fill="none" height="6" style="stroke:#C82930;stroke-width:1.0;" width="6" x="616.518" y="577.7578"/><text fill="#000000" font-family="sans-serif" font-size="11" lengthAdjust="spacing" textLength="62" x="628.518" y="583.9683">bool _filled</text><line style="stroke:#A80036;stroke-width:1.5;" x1="609.518" x2="828.518" y1="590.5625" y2="590.5625"/><ellipse cx="619.518" cy="601.5625" fill="#84BE84" rx="3" ry="3" style="stroke:#038048;stroke-width:1.0;"/><text fill="#000000" font-family="sans-serif" font-size="11" lengthAdjust="spacing" textLength="122" x="628.518" y="604.7729">GridCase(int position)</text><ellipse cx="619.518" cy="614.3672" fill="#84BE84" rx="3" ry="3" style="stroke:#038048;stroke-width:1.0;"/><text fill="#000000" font-family="sans-serif" font-size="11" lengthAdjust="spacing" textLength="152" x="628.518" y="617.5776">bool placeUnit(Troup* unit)</text><ellipse cx="619.518" cy="627.1719" fill="#84BE84" rx="3" ry="3" style="stroke:#038048;stroke-width:1.0;"/><text fill="#000000" font-family="sans-serif" font-size="11" lengthAdjust="spacing" textLength="81" x="628.518" y="630.3823">bool isEmpty()</text><ellipse cx="619.518" cy="639.9766" fill="#84BE84" rx="3" ry="3" style="stroke:#038048;stroke-width:1.0;"/><text fill="#000000" font-family="sans-serif" font-size="11" lengthAdjust="spacing" textLength="195" x="628.518" y="643.187">string getTroupName(bool isShort)</text><ellipse cx="619.518" cy="652.7813" fill="#84BE84" rx="3" ry="3" style="stroke:#038048;stroke-width:1.0;"/><text fill="#000000" font-family="sans-serif" font-size="11" lengthAdjust="spacing" textLength="91" x="628.518" y="655.9917">Troup* getUnit()</text><ellipse cx="619.518" cy="665.5859" fill="#84BE84" rx="3" ry="3" style="stroke:#038048;stroke-width:1.0;"/><text fill="#000000" font-family="sans-serif" font-size="11" lengthAdjust="spacing" textLength="131" x="628.518" y="668.7964">Player* getUnitOwner()</text><ellipse cx="619.518" cy="678.3906" fill="#84BE84" rx="3" ry="3" style="stroke:#038048;stroke-width:1.0;"/><text fill="#000000" font-family="sans-serif" font-size="11" lengthAdjust="spacing" textLength="176" x="628.518" y="681.6011">Action getUnitAction(int phase)</text><!--MD5=[da7d1f6848965b135f193f8109b0a1f3]
class HomeCase--><rect codeLine="58" fill="#FEFECE" filter="url(#f1dx3rdmp0womr)" height="60.8047" id="HomeCase" style="stroke:#A80036;stroke-width:1.5;" width="159" x="956.518" y="1334.9531"/><ellipse cx="998.968" cy="1350.9531" fill="#ADD1B2" rx="11" ry="11" style="stroke:#A80036;stroke-width:1.0;"/><path d="M1001.3118,1346.625 C1000.3743,1346.1875 999.7805,1346.0469 998.9055,1346.0469 C996.2805,1346.0469 994.2805,1348.125 994.2805,1350.8438 L994.2805,1351.9688 C994.2805,1354.5469 996.3899,1356.4375 999.2805,1356.4375 C1000.4993,1356.4375 1001.6555,1356.1406 1002.4055,1355.5938 C1002.9836,1355.1875 1003.3118,1354.7344 1003.3118,1354.3438 C1003.3118,1353.8906 1002.9211,1353.5 1002.4524,1353.5 C1002.2336,1353.5 1002.0305,1353.5781 1001.843,1353.7656 C1001.3899,1354.25 1001.3899,1354.25 1001.2024,1354.3438 C1000.7805,1354.6094 1000.093,1354.7344 999.3274,1354.7344 C997.2805,1354.7344 995.9836,1353.6406 995.9836,1351.9375 L995.9836,1350.8438 C995.9836,1349.0625 997.2336,1347.75 998.968,1347.75 C999.5461,1347.75 1000.1555,1347.9063 1000.6243,1348.1563 C1001.1086,1348.4375 1001.2805,1348.6563 1001.3743,1349.0625 C1001.4368,1349.4688 1001.468,1349.5938 1001.6086,1349.7188 C1001.7493,1349.8594 1001.9836,1349.9688 1002.2024,1349.9688 C1002.468,1349.9688 1002.7336,1349.8281 1002.9055,1349.6094 C1003.0149,1349.4531 1003.0461,1349.2656 1003.0461,1348.8438 L1003.0461,1347.4219 C1003.0461,1346.9844 1003.0305,1346.8594 1002.9368,1346.7031 C1002.7805,1346.4375 1002.4993,1346.2969 1002.2024,1346.2969 C1001.9055,1346.2969 1001.7024,1346.3906 1001.4836,1346.7031 L1001.3118,1346.625 Z " fill="#000000"/><text fill="#000000" font-family="sans-serif" font-size="12" lengthAdjust="spacing" textLength="66" x="1019.068" y="1355.1074">HomeCase</text><line style="stroke:#A80036;stroke-width:1.5;" x1="957.518" x2="1114.518" y1="1366.9531" y2="1366.9531"/><line style="stroke:#A80036;stroke-width:1.5;" x1="957.518" x2="1114.518" y1="1374.9531" y2="1374.9531"/><ellipse cx="967.518" cy="1385.9531" fill="#84BE84" rx="3" ry="3" style="stroke:#038048;stroke-width:1.0;"/><text fill="#000000" font-family="sans-serif" font-size="11" lengthAdjust="spacing" textLength="133" x="976.518" y="1389.1636">HomeCase(int position)</text><!--MD5=[53272eeea06fe80d83fd996defbd63c3]
class Health--><rect codeLine="61" fill="#FEFECE" filter="url(#f1dx3rdmp0womr)" height="86.4141" id="Health" style="stroke:#A80036;stroke-width:1.5;" width="150" x="1152.022" y="563.4531"/><ellipse cx="1203.272" cy="579.4531" fill="#A9DCDF" rx="11" ry="11" style="stroke:#A80036;stroke-width:1.0;"/><path d="M1205.3501,581.2656 L1205.7408,582.25 L1205.3501,582.25 C1204.897,582.25 1204.7876,582.2656 1204.6314,582.375 C1204.3814,582.5313 1204.2251,582.8125 1204.2251,583.1094 C1204.2251,583.375 1204.3658,583.625 1204.5845,583.7813 C1204.7251,583.9063 1204.9283,583.9531 1205.3501,583.9531 L1207.7095,583.9531 C1208.0689,583.9531 1208.2876,583.9219 1208.4283,583.8281 C1208.6783,583.6875 1208.8345,583.3906 1208.8345,583.1094 C1208.8345,582.8281 1208.6939,582.5781 1208.4751,582.4219 C1208.3033,582.2813 1208.147,582.25 1207.6783,582.25 L1204.2876,574.0469 L1200.6158,574.0469 C1200.1626,574.0469 1200.0376,574.0625 1199.8814,574.1563 C1199.6314,574.3281 1199.4751,574.6094 1199.4751,574.8906 C1199.4751,575.1719 1199.6158,575.4219 1199.8345,575.5938 C1200.0064,575.7031 1200.1783,575.7344 1200.6158,575.7344 L1201.6939,575.7344 L1199.0533,582.25 C1198.6314,582.25 1198.4751,582.2656 1198.3189,582.375 C1198.0689,582.5313 1197.9126,582.8125 1197.9126,583.1094 C1197.9126,583.6719 1198.2876,583.9531 1199.0376,583.9531 L1201.3033,583.9531 C1201.6626,583.9531 1201.8814,583.9219 1202.0064,583.8281 C1202.272,583.6875 1202.4126,583.3906 1202.4126,583.1094 C1202.4126,582.8281 1202.2876,582.5781 1202.0689,582.4063 C1201.897,582.2813 1201.7564,582.25 1201.3033,582.25 L1200.9126,582.25 L1201.3033,581.2656 L1205.3501,581.2656 Z M1204.647,579.5625 L1201.9751,579.5625 L1203.3189,576.2969 L1204.647,579.5625 Z " fill="#000000"/><text fill="#000000" font-family="sans-serif" font-size="12" font-style="italic" lengthAdjust="spacing" textLength="39" x="1223.772" y="583.6074">Health</text><line style="stroke:#A80036;stroke-width:1.5;" x1="1153.022" x2="1301.022" y1="595.4531" y2="595.4531"/><polygon fill="none" points="1163.022,601.4531,1167.022,605.4531,1163.022,609.4531,1159.022,605.4531" style="stroke:#B38D22;stroke-width:1.0;"/><text fill="#000000" font-family="sans-serif" font-size="11" lengthAdjust="spacing" textLength="91" x="1172.022" y="609.6636">int _initialHealth</text><polygon fill="none" points="1163.022,614.2578,1167.022,618.2578,1163.022,622.2578,1159.022,618.2578" style="stroke:#B38D22;stroke-width:1.0;"/><text fill="#000000" font-family="sans-serif" font-size="11" lengthAdjust="spacing" textLength="101" x="1172.022" y="622.4683">int _currentHealth</text><line style="stroke:#A80036;stroke-width:1.5;" x1="1153.022" x2="1301.022" y1="629.0625" y2="629.0625"/><ellipse cx="1163.022" cy="640.0625" fill="#84BE84" rx="3" ry="3" style="stroke:#038048;stroke-width:1.0;"/><text fill="#000000" font-family="sans-serif" font-size="11" lengthAdjust="spacing" textLength="124" x="1172.022" y="643.2729">int getCurrentHealth()</text><!--MD5=[9763aec34dadcbc6c8f31d24f57a8b53]
class Fantassin--><rect codeLine="66" fill="#FEFECE" filter="url(#f1dx3rdmp0womr)" height="60.8047" id="Fantassin" style="stroke:#A80036;stroke-width:1.5;" width="154" x="709.018" y="1100.9531"/><ellipse cx="753.768" cy="1116.9531" fill="#ADD1B2" rx="11" ry="11" style="stroke:#A80036;stroke-width:1.0;"/><path d="M756.1118,1112.625 C755.1743,1112.1875 754.5805,1112.0469 753.7055,1112.0469 C751.0805,1112.0469 749.0805,1114.125 749.0805,1116.8438 L749.0805,1117.9688 C749.0805,1120.5469 751.1899,1122.4375 754.0805,1122.4375 C755.2993,1122.4375 756.4555,1122.1406 757.2055,1121.5938 C757.7836,1121.1875 758.1118,1120.7344 758.1118,1120.3438 C758.1118,1119.8906 757.7211,1119.5 757.2524,1119.5 C757.0336,1119.5 756.8305,1119.5781 756.643,1119.7656 C756.1899,1120.25 756.1899,1120.25 756.0024,1120.3438 C755.5805,1120.6094 754.893,1120.7344 754.1274,1120.7344 C752.0805,1120.7344 750.7836,1119.6406 750.7836,1117.9375 L750.7836,1116.8438 C750.7836,1115.0625 752.0336,1113.75 753.768,1113.75 C754.3461,1113.75 754.9555,1113.9063 755.4243,1114.1563 C755.9086,1114.4375 756.0805,1114.6563 756.1743,1115.0625 C756.2368,1115.4688 756.268,1115.5938 756.4086,1115.7188 C756.5493,1115.8594 756.7836,1115.9688 757.0024,1115.9688 C757.268,1115.9688 757.5336,1115.8281 757.7055,1115.6094 C757.8149,1115.4531 757.8461,1115.2656 757.8461,1114.8438 L757.8461,1113.4219 C757.8461,1112.9844 757.8305,1112.8594 757.7368,1112.7031 C757.5805,1112.4375 757.2993,1112.2969 757.0024,1112.2969 C756.7055,1112.2969 756.5024,1112.3906 756.2836,1112.7031 L756.1118,1112.625 Z " fill="#000000"/><text fill="#000000" font-family="sans-serif" font-size="12" lengthAdjust="spacing" textLength="56" x="774.268" y="1121.1074">Fantassin</text><line style="stroke:#A80036;stroke-width:1.5;" x1="710.018" x2="862.018" y1="1132.9531" y2="1132.9531"/><line style="stroke:#A80036;stroke-width:1.5;" x1="710.018" x2="862.018" y1="1140.9531" y2="1140.9531"/><text fill="#000000" font-family="sans-serif" font-size="11" lengthAdjust="spacing" textLength="142" x="715.018" y="1155.1636">Fantassin(Player* player)</text><!--MD5=[deac7861478dcf43a2a7e37b65ee84f7]
class Archer--><rect codeLine="69" fill="#FEFECE" filter="url(#f1dx3rdmp0womr)" height="60.8047" id="Archer" style="stroke:#A80036;stroke-width:1.5;" width="138" x="206.0183" y="1100.9531"/><ellipse cx="250.7683" cy="1116.9531" fill="#ADD1B2" rx="11" ry="11" style="stroke:#A80036;stroke-width:1.0;"/><path d="M253.1121,1112.625 C252.1746,1112.1875 251.5808,1112.0469 250.7058,1112.0469 C248.0808,1112.0469 246.0808,1114.125 246.0808,1116.8438 L246.0808,1117.9688 C246.0808,1120.5469 248.1902,1122.4375 251.0808,1122.4375 C252.2996,1122.4375 253.4558,1122.1406 254.2058,1121.5938 C254.7839,1121.1875 255.1121,1120.7344 255.1121,1120.3438 C255.1121,1119.8906 254.7214,1119.5 254.2527,1119.5 C254.0339,1119.5 253.8308,1119.5781 253.6433,1119.7656 C253.1902,1120.25 253.1902,1120.25 253.0027,1120.3438 C252.5808,1120.6094 251.8933,1120.7344 251.1277,1120.7344 C249.0808,1120.7344 247.7839,1119.6406 247.7839,1117.9375 L247.7839,1116.8438 C247.7839,1115.0625 249.0339,1113.75 250.7683,1113.75 C251.3464,1113.75 251.9558,1113.9063 252.4246,1114.1563 C252.9089,1114.4375 253.0808,1114.6563 253.1746,1115.0625 C253.2371,1115.4688 253.2683,1115.5938 253.4089,1115.7188 C253.5496,1115.8594 253.7839,1115.9688 254.0027,1115.9688 C254.2683,1115.9688 254.5339,1115.8281 254.7058,1115.6094 C254.8152,1115.4531 254.8464,1115.2656 254.8464,1114.8438 L254.8464,1113.4219 C254.8464,1112.9844 254.8308,1112.8594 254.7371,1112.7031 C254.5808,1112.4375 254.2996,1112.2969 254.0027,1112.2969 C253.7058,1112.2969 253.5027,1112.3906 253.2839,1112.7031 L253.1121,1112.625 Z " fill="#000000"/><text fill="#000000" font-family="sans-serif" font-size="12" lengthAdjust="spacing" textLength="40" x="271.2683" y="1121.1074">Archer</text><line style="stroke:#A80036;stroke-width:1.5;" x1="207.0183" x2="343.0183" y1="1132.9531" y2="1132.9531"/><line style="stroke:#A80036;stroke-width:1.5;" x1="207.0183" x2="343.0183" y1="1140.9531" y2="1140.9531"/><text fill="#000000" font-family="sans-serif" font-size="11" lengthAdjust="spacing" textLength="126" x="212.0183" y="1155.1636">Archer(Player* player)</text><!--MD5=[7e00700e11131a05fea69ced40092349]
class Catapult--><rect codeLine="72" fill="#FEFECE" filter="url(#f1dx3rdmp0womr)" height="60.8047" id="Catapult" style="stroke:#A80036;stroke-width:1.5;" width="148" x="379.018" y="1100.9531"/><ellipse cx="424.768" cy="1116.9531" fill="#ADD1B2" rx="11" ry="11" style="stroke:#A80036;stroke-width:1.0;"/><path d="M427.1118,1112.625 C426.1743,1112.1875 425.5805,1112.0469 424.7055,1112.0469 C422.0805,1112.0469 420.0805,1114.125 420.0805,1116.8438 L420.0805,1117.9688 C420.0805,1120.5469 422.1899,1122.4375 425.0805,1122.4375 C426.2993,1122.4375 427.4555,1122.1406 428.2055,1121.5938 C428.7836,1121.1875 429.1118,1120.7344 429.1118,1120.3438 C429.1118,1119.8906 428.7211,1119.5 428.2524,1119.5 C428.0336,1119.5 427.8305,1119.5781 427.643,1119.7656 C427.1899,1120.25 427.1899,1120.25 427.0024,1120.3438 C426.5805,1120.6094 425.893,1120.7344 425.1274,1120.7344 C423.0805,1120.7344 421.7836,1119.6406 421.7836,1117.9375 L421.7836,1116.8438 C421.7836,1115.0625 423.0336,1113.75 424.768,1113.75 C425.3461,1113.75 425.9555,1113.9063 426.4243,1114.1563 C426.9086,1114.4375 427.0805,1114.6563 427.1743,1115.0625 C427.2368,1115.4688 427.268,1115.5938 427.4086,1115.7188 C427.5493,1115.8594 427.7836,1115.9688 428.0024,1115.9688 C428.268,1115.9688 428.5336,1115.8281 428.7055,1115.6094 C428.8149,1115.4531 428.8461,1115.2656 428.8461,1114.8438 L428.8461,1113.4219 C428.8461,1112.9844 428.8305,1112.8594 428.7368,1112.7031 C428.5805,1112.4375 428.2993,1112.2969 428.0024,1112.2969 C427.7055,1112.2969 427.5024,1112.3906 427.2836,1112.7031 L427.1118,1112.625 Z " fill="#000000"/><text fill="#000000" font-family="sans-serif" font-size="12" lengthAdjust="spacing" textLength="48" x="445.268" y="1121.1074">Catapult</text><line style="stroke:#A80036;stroke-width:1.5;" x1="380.018" x2="526.018" y1="1132.9531" y2="1132.9531"/><line style="stroke:#A80036;stroke-width:1.5;" x1="380.018" x2="526.018" y1="1140.9531" y2="1140.9531"/><text fill="#000000" font-family="sans-serif" font-size="11" lengthAdjust="spacing" textLength="136" x="385.018" y="1155.1636">Catapult(Player* player)</text><!--MD5=[11505635bb756aeac8cd54b35fbf5e75]
class SuperSoldier--><rect codeLine="75" fill="#FEFECE" filter="url(#f1dx3rdmp0womr)" height="48" id="SuperSoldier" style="stroke:#A80036;stroke-width:1.5;" width="111" x="562.518" y="1107.4531"/><ellipse cx="577.518" cy="1123.4531" fill="#ADD1B2" rx="11" ry="11" style="stroke:#A80036;stroke-width:1.0;"/><path d="M579.8618,1119.125 C578.9243,1118.6875 578.3305,1118.5469 577.4555,1118.5469 C574.8305,1118.5469 572.8305,1120.625 572.8305,1123.3438 L572.8305,1124.4688 C572.8305,1127.0469 574.9399,1128.9375 577.8305,1128.9375 C579.0493,1128.9375 580.2055,1128.6406 580.9555,1128.0938 C581.5336,1127.6875 581.8618,1127.2344 581.8618,1126.8438 C581.8618,1126.3906 581.4711,1126 581.0024,1126 C580.7836,1126 580.5805,1126.0781 580.393,1126.2656 C579.9399,1126.75 579.9399,1126.75 579.7524,1126.8438 C579.3305,1127.1094 578.643,1127.2344 577.8774,1127.2344 C575.8305,1127.2344 574.5336,1126.1406 574.5336,1124.4375 L574.5336,1123.3438 C574.5336,1121.5625 575.7836,1120.25 577.518,1120.25 C578.0961,1120.25 578.7055,1120.4063 579.1743,1120.6563 C579.6586,1120.9375 579.8305,1121.1563 579.9243,1121.5625 C579.9868,1121.9688 580.018,1122.0938 580.1586,1122.2188 C580.2993,1122.3594 580.5336,1122.4688 580.7524,1122.4688 C581.018,1122.4688 581.2836,1122.3281 581.4555,1122.1094 C581.5649,1121.9531 581.5961,1121.7656 581.5961,1121.3438 L581.5961,1119.9219 C581.5961,1119.4844 581.5805,1119.3594 581.4868,1119.2031 C581.3305,1118.9375 581.0493,1118.7969 580.7524,1118.7969 C580.4555,1118.7969 580.2524,1118.8906 580.0336,1119.2031 L579.8618,1119.125 Z " fill="#000000"/><text fill="#000000" font-family="sans-serif" font-size="12" lengthAdjust="spacing" textLength="79" x="591.518" y="1127.6074">SuperSoldier</text><line style="stroke:#A80036;stroke-width:1.5;" x1="563.518" x2="672.518" y1="1139.4531" y2="1139.4531"/><line style="stroke:#A80036;stroke-width:1.5;" x1="563.518" x2="672.518" y1="1147.4531" y2="1147.4531"/><!--MD5=[2cb47ba637a0d19583e6199456f6ad0b]
class Player--><rect codeLine="76" fill="#FEFECE" filter="url(#f1dx3rdmp0womr)" height="252.875" id="Player" style="stroke:#A80036;stroke-width:1.5;" width="275" x="898.518" y="1004.9531"/><ellipse cx="1013.768" cy="1020.9531" fill="#ADD1B2" rx="11" ry="11" style="stroke:#A80036;stroke-width:1.0;"/><path d="M1016.1118,1016.625 C1015.1743,1016.1875 1014.5805,1016.0469 1013.7055,1016.0469 C1011.0805,1016.0469 1009.0805,1018.125 1009.0805,1020.8438 L1009.0805,1021.9688 C1009.0805,1024.5469 1011.1899,1026.4375 1014.0805,1026.4375 C1015.2993,1026.4375 1016.4555,1026.1406 1017.2055,1025.5938 C1017.7836,1025.1875 1018.1118,1024.7344 1018.1118,1024.3438 C1018.1118,1023.8906 1017.7211,1023.5 1017.2524,1023.5 C1017.0336,1023.5 1016.8305,1023.5781 1016.643,1023.7656 C1016.1899,1024.25 1016.1899,1024.25 1016.0024,1024.3438 C1015.5805,1024.6094 1014.893,1024.7344 1014.1274,1024.7344 C1012.0805,1024.7344 1010.7836,1023.6406 1010.7836,1021.9375 L1010.7836,1020.8438 C1010.7836,1019.0625 1012.0336,1017.75 1013.768,1017.75 C1014.3461,1017.75 1014.9555,1017.9063 1015.4243,1018.1563 C1015.9086,1018.4375 1016.0805,1018.6563 1016.1743,1019.0625 C1016.2368,1019.4688 1016.268,1019.5938 1016.4086,1019.7188 C1016.5493,1019.8594 1016.7836,1019.9688 1017.0024,1019.9688 C1017.268,1019.9688 1017.5336,1019.8281 1017.7055,1019.6094 C1017.8149,1019.4531 1017.8461,1019.2656 1017.8461,1018.8438 L1017.8461,1017.4219 C1017.8461,1016.9844 1017.8305,1016.8594 1017.7368,1016.7031 C1017.5805,1016.4375 1017.2993,1016.2969 1017.0024,1016.2969 C1016.7055,1016.2969 1016.5024,1016.3906 1016.2836,1016.7031 L1016.1118,1016.625 Z " fill="#000000"/><text fill="#000000" font-family="sans-serif" font-size="12" lengthAdjust="spacing" textLength="36" x="1034.268" y="1025.1074">Player</text><line style="stroke:#A80036;stroke-width:1.5;" x1="899.518" x2="1172.518" y1="1036.9531" y2="1036.9531"/><rect fill="none" height="6" style="stroke:#C82930;stroke-width:1.0;" width="6" x="906.518" y="1044.9531"/><text fill="#000000" font-family="sans-serif" font-size="11" lengthAdjust="spacing" textLength="111" x="918.518" y="1051.1636">string _playerName</text><rect fill="none" height="6" style="stroke:#C82930;stroke-width:1.0;" width="6" x="906.518" y="1057.7578"/><text fill="#000000" font-family="sans-serif" font-size="11" lengthAdjust="spacing" textLength="70" x="918.518" y="1063.9683">int _playerId</text><rect fill="none" height="6" style="stroke:#C82930;stroke-width:1.0;" width="6" x="906.518" y="1070.5625"/><text fill="#000000" font-family="sans-serif" font-size="11" lengthAdjust="spacing" textLength="53" x="918.518" y="1076.7729">int _coins</text><rect fill="none" height="6" style="stroke:#C82930;stroke-width:1.0;" width="6" x="906.518" y="1083.3672"/><text fill="#000000" font-family="sans-serif" font-size="11" lengthAdjust="spacing" text-decoration="underline" textLength="105" x="918.518" y="1089.5776">int _playerNumber</text><line style="stroke:#A80036;stroke-width:1.5;" x1="899.518" x2="1172.518" y1="1096.1719" y2="1096.1719"/><ellipse cx="909.518" cy="1107.1719" fill="#84BE84" rx="3" ry="3" style="stroke:#038048;stroke-width:1.0;"/><text fill="#000000" font-family="sans-serif" font-size="11" lengthAdjust="spacing" textLength="181" x="918.518" y="1110.3823">Player(HomeCase &amp;homeCase)</text><ellipse cx="909.518" cy="1119.9766" fill="#84BE84" rx="3" ry="3" style="stroke:#038048;stroke-width:1.0;"/><text fill="#000000" font-family="sans-serif" font-size="11" lengthAdjust="spacing" textLength="99" x="918.518" y="1123.187">string displayStr()</text><ellipse cx="909.518" cy="1132.7813" fill="#84BE84" rx="3" ry="3" style="stroke:#038048;stroke-width:1.0;"/><text fill="#000000" font-family="sans-serif" font-size="11" lengthAdjust="spacing" textLength="178" x="918.518" y="1135.9917">void initialize(Console console)</text><ellipse cx="909.518" cy="1145.5859" fill="#84BE84" rx="3" ry="3" style="stroke:#038048;stroke-width:1.0;"/><text fill="#000000" font-family="sans-serif" font-size="11" lengthAdjust="spacing" textLength="119" x="918.518" y="1148.7964">string getFirstLetter()</text><ellipse cx="909.518" cy="1158.3906" fill="#84BE84" rx="3" ry="3" style="stroke:#038048;stroke-width:1.0;"/><text fill="#000000" font-family="sans-serif" font-size="11" lengthAdjust="spacing" textLength="96" x="918.518" y="1161.6011">string getName()</text><ellipse cx="909.518" cy="1171.1953" fill="#84BE84" rx="3" ry="3" style="stroke:#038048;stroke-width:1.0;"/><text fill="#000000" font-family="sans-serif" font-size="11" lengthAdjust="spacing" textLength="172" x="918.518" y="1174.4058">void incrementCoins(int coins)</text><ellipse cx="909.518" cy="1184" fill="#84BE84" rx="3" ry="3" style="stroke:#038048;stroke-width:1.0;"/><text fill="#000000" font-family="sans-serif" font-size="11" lengthAdjust="spacing" textLength="177" x="918.518" y="1187.2104">void decrementCoins(int coins)</text><ellipse cx="909.518" cy="1196.8047" fill="#84BE84" rx="3" ry="3" style="stroke:#038048;stroke-width:1.0;"/><text fill="#000000" font-family="sans-serif" font-size="11" lengthAdjust="spacing" textLength="61" x="918.518" y="1200.0151">bool isKO()</text><ellipse cx="909.518" cy="1209.6094" fill="#84BE84" rx="3" ry="3" style="stroke:#038048;stroke-width:1.0;"/><text fill="#000000" font-family="sans-serif" font-size="11" lengthAdjust="spacing" textLength="118" x="918.518" y="1212.8198">bool canPlaceTroup()</text><ellipse cx="909.518" cy="1222.4141" fill="#84BE84" rx="3" ry="3" style="stroke:#038048;stroke-width:1.0;"/><text fill="#000000" font-family="sans-serif" font-size="11" lengthAdjust="spacing" textLength="249" x="918.518" y="1225.6245">void placeTroupOnHomeCase(Troup* troup)</text><ellipse cx="909.518" cy="1235.2188" fill="#84BE84" rx="3" ry="3" style="stroke:#038048;stroke-width:1.0;"/><text fill="#000000" font-family="sans-serif" font-size="11" lengthAdjust="spacing" textLength="155" x="918.518" y="1238.4292">GridCase&amp; getHomeCase()</text><ellipse cx="909.518" cy="1248.0234" fill="#84BE84" rx="3" ry="3" style="stroke:#038048;stroke-width:1.0;"/><text fill="#000000" font-family="sans-serif" font-size="11" lengthAdjust="spacing" textLength="76" x="918.518" y="1251.2339">int getCoins()</text><!--MD5=[0174392a0c212c3b3e97bee69152624c]
class Panel--><rect codeLine="94" fill="#FEFECE" filter="url(#f1dx3rdmp0womr)" height="99.2188" id="Panel" style="stroke:#A80036;stroke-width:1.5;" width="63" x="1116.518" y="76.9531"/><ellipse cx="1131.518" cy="92.9531" fill="#EB937F" rx="11" ry="11" style="stroke:#A80036;stroke-width:1.0;"/><path d="M1130.3149,93.8281 L1131.768,93.8281 L1131.768,93.9375 C1131.768,94.3438 1131.7993,94.5 1131.8774,94.6563 C1132.0336,94.9063 1132.3149,95.0625 1132.6118,95.0625 C1132.8618,95.0625 1133.1274,94.9219 1133.2836,94.7031 C1133.4086,94.5469 1133.4399,94.3906 1133.4399,93.9375 L1133.4399,92.0156 C1133.4399,91.8594 1133.4399,91.8125 1133.4243,91.6563 C1133.3618,91.1875 1133.0493,90.875 1132.5961,90.875 C1132.3461,90.875 1132.0805,91.0156 1131.9086,91.2344 C1131.7993,91.4063 1131.768,91.5625 1131.768,92.0156 L1131.768,92.1406 L1130.3149,92.1406 L1130.3149,89.7344 L1134.2993,89.7344 L1134.2993,90.5938 C1134.2993,91 1134.3305,91.1719 1134.4086,91.3281 C1134.5805,91.5781 1134.8618,91.7344 1135.143,91.7344 C1135.4086,91.7344 1135.6743,91.5938 1135.8461,91.375 C1135.9555,91.2031 1135.9868,91.0625 1135.9868,90.5938 L1135.9868,88.0469 L1128.3618,88.0469 C1127.9243,88.0469 1127.7993,88.0625 1127.643,88.1563 C1127.393,88.3125 1127.2368,88.6094 1127.2368,88.8906 C1127.2368,89.1719 1127.3774,89.4219 1127.5961,89.5938 C1127.7524,89.7031 1127.9399,89.7344 1128.3618,89.7344 L1128.6118,89.7344 L1128.6118,96.25 L1128.3618,96.25 C1127.9555,96.25 1127.7993,96.2656 1127.643,96.375 C1127.393,96.5469 1127.2368,96.8125 1127.2368,97.1094 C1127.2368,97.375 1127.3774,97.625 1127.5961,97.7813 C1127.7368,97.9063 1127.9711,97.9531 1128.3618,97.9531 L1136.3618,97.9531 L1136.3618,95.375 C1136.3618,94.9375 1136.3305,94.7969 1136.2524,94.6406 C1136.0805,94.3906 1135.7993,94.2344 1135.518,94.2344 C1135.2524,94.2344 1134.9868,94.3438 1134.8149,94.5938 C1134.7055,94.75 1134.6743,94.8906 1134.6743,95.375 L1134.6743,96.25 L1130.3149,96.25 L1130.3149,93.8281 Z " fill="#000000"/><text fill="#000000" font-family="sans-serif" font-size="12" lengthAdjust="spacing" textLength="31" x="1145.518" y="97.1074">Panel</text><line style="stroke:#A80036;stroke-width:1.5;" x1="1117.518" x2="1178.518" y1="108.9531" y2="108.9531"/><text fill="#000000" font-family="sans-serif" font-size="11" lengthAdjust="spacing" textLength="21" x="1122.518" y="123.1636">Top</text><text fill="#000000" font-family="sans-serif" font-size="11" lengthAdjust="spacing" textLength="22" x="1122.518" y="135.9683">Left</text><text fill="#000000" font-family="sans-serif" font-size="11" lengthAdjust="spacing" textLength="28" x="1122.518" y="148.7729">Right</text><text fill="#000000" font-family="sans-serif" font-size="11" lengthAdjust="spacing" textLength="41" x="1122.518" y="161.5776">Bottom</text><line style="stroke:#A80036;stroke-width:1.5;" x1="1117.518" x2="1178.518" y1="168.1719" y2="168.1719"/><!--MD5=[f8e7078f77c005d15b486c0c98deb1e6]
class Action--><rect codeLine="100" fill="#FEFECE" filter="url(#f1dx3rdmp0womr)" height="86.4141" id="Action" style="stroke:#A80036;stroke-width:1.5;" width="87" x="1214.522" y="83.4531"/><ellipse cx="1237.622" cy="99.4531" fill="#EB937F" rx="11" ry="11" style="stroke:#A80036;stroke-width:1.0;"/><path d="M1236.4189,100.3281 L1237.872,100.3281 L1237.872,100.4375 C1237.872,100.8438 1237.9032,101 1237.9814,101.1563 C1238.1376,101.4063 1238.4189,101.5625 1238.7157,101.5625 C1238.9657,101.5625 1239.2314,101.4219 1239.3876,101.2031 C1239.5126,101.0469 1239.5439,100.8906 1239.5439,100.4375 L1239.5439,98.5156 C1239.5439,98.3594 1239.5439,98.3125 1239.5282,98.1563 C1239.4657,97.6875 1239.1532,97.375 1238.7001,97.375 C1238.4501,97.375 1238.1845,97.5156 1238.0126,97.7344 C1237.9032,97.9063 1237.872,98.0625 1237.872,98.5156 L1237.872,98.6406 L1236.4189,98.6406 L1236.4189,96.2344 L1240.4032,96.2344 L1240.4032,97.0938 C1240.4032,97.5 1240.4345,97.6719 1240.5126,97.8281 C1240.6845,98.0781 1240.9657,98.2344 1241.247,98.2344 C1241.5126,98.2344 1241.7782,98.0938 1241.9501,97.875 C1242.0595,97.7031 1242.0907,97.5625 1242.0907,97.0938 L1242.0907,94.5469 L1234.4657,94.5469 C1234.0282,94.5469 1233.9032,94.5625 1233.747,94.6563 C1233.497,94.8125 1233.3407,95.1094 1233.3407,95.3906 C1233.3407,95.6719 1233.4814,95.9219 1233.7001,96.0938 C1233.8564,96.2031 1234.0439,96.2344 1234.4657,96.2344 L1234.7157,96.2344 L1234.7157,102.75 L1234.4657,102.75 C1234.0595,102.75 1233.9032,102.7656 1233.747,102.875 C1233.497,103.0469 1233.3407,103.3125 1233.3407,103.6094 C1233.3407,103.875 1233.4814,104.125 1233.7001,104.2813 C1233.8407,104.4063 1234.0751,104.4531 1234.4657,104.4531 L1242.4657,104.4531 L1242.4657,101.875 C1242.4657,101.4375 1242.4345,101.2969 1242.3564,101.1406 C1242.1845,100.8906 1241.9032,100.7344 1241.622,100.7344 C1241.3564,100.7344 1241.0907,100.8438 1240.9189,101.0938 C1240.8095,101.25 1240.7782,101.3906 1240.7782,101.875 L1240.7782,102.75 L1236.4189,102.75 L1236.4189,100.3281 Z " fill="#000000"/><text fill="#000000" font-family="sans-serif" font-size="12" lengthAdjust="spacing" textLength="37" x="1253.422" y="103.6074">Action</text><line style="stroke:#A80036;stroke-width:1.5;" x1="1215.522" x2="1300.522" y1="115.4531" y2="115.4531"/><text fill="#000000" font-family="sans-serif" font-size="11" lengthAdjust="spacing" textLength="35" x="1220.522" y="129.6636">Attack</text><text fill="#000000" font-family="sans-serif" font-size="11" lengthAdjust="spacing" textLength="75" x="1220.522" y="142.4683">MoveForward</text><text fill="#000000" font-family="sans-serif" font-size="11" lengthAdjust="spacing" textLength="30" x="1220.522" y="155.2729">None</text><line style="stroke:#A80036;stroke-width:1.5;" x1="1215.522" x2="1300.522" y1="161.8672" y2="161.8672"/><!--MD5=[368deceb10b85c85f640467e307a4869]
reverse link Troup to Fantassin--><path codeLine="106" d="M721.936,947.2691 C740.878,1001.4161 762.948,1064.5041 775.621,1100.7311 " fill="none" id="Troup-backto-Fantassin" style="stroke:#A80036;stroke-width:1.0;"/><polygon fill="none" points="715.252,949.3601,715.255,928.1711,728.467,944.7371,715.252,949.3601" style="stroke:#A80036;stroke-width:1.0;"/><!--MD5=[b003386709e6ada55bb90780a4cdaf20]
reverse link Troup to SuperSoldier--><path codeLine="107" d="M662.595,947.6261 C648.574,1005.1321 632.119,1072.6201 623.665,1107.2951 " fill="none" id="Troup-backto-SuperSoldier" style="stroke:#A80036;stroke-width:1.0;"/><polygon fill="none" points="655.8,945.9431,667.338,928.1711,669.401,949.2601,655.8,945.9431" style="stroke:#A80036;stroke-width:1.0;"/><!--MD5=[1e0336d30d132e60f7d14bcee7c666fb]
reverse link Troup to Archer--><path codeLine="108" d="M573.887,885.2481 C506.927,911.5001 423.299,951.4161 361.018,1004.9531 C329.571,1031.9851 304.35,1073.0631 289.546,1100.7911 " fill="none" id="Troup-backto-Archer" style="stroke:#A80036;stroke-width:1.0;"/><polygon fill="none" points="571.565,878.6421,592.746,878.0391,576.563,891.7191,571.565,878.6421" style="stroke:#A80036;stroke-width:1.0;"/><!--MD5=[a41b2a99f9314e5f539bfcdb782b9533]
reverse link Troup to Catapult--><path codeLine="109" d="M597.819,943.2951 C579.953,963.3451 561.593,984.5881 545.018,1004.9531 C519.098,1036.8021 491.524,1075.0741 473.399,1100.9141 " fill="none" id="Troup-backto-Catapult" style="stroke:#A80036;stroke-width:1.0;"/><polygon fill="none" points="592.775,938.4341,611.346,928.2301,603.193,947.7881,592.775,938.4341" style="stroke:#A80036;stroke-width:1.0;"/><!--MD5=[ba47c04cb6e6cab7a887cf4cad3f8eec]
reverse link GridCase to HomeCase--><path codeLine="110" d="M590.558,675.8751 C380.924,795.9971 6,1051.6451 188.0183,1257.9531 C238.4813,1315.1502 754.98,1349.1735 956.296,1360.3488 " fill="none" id="GridCase-backto-HomeCase" style="stroke:#A80036;stroke-width:1.0;"/><polygon fill="none" points="587.291,669.6801,608.14,665.8951,594.202,681.8561,587.291,669.6801" style="stroke:#A80036;stroke-width:1.0;"/><!--MD5=[5f50cc9252ff11bc7088f96fb72f766e]
reverse link Health to Troup--><path codeLine="111" d="M1166.582,661.9631 C1153.542,671.7131 1139.35,680.9731 1125.018,687.9531 C994.669,751.4351 940.833,706.8061 808.018,764.9531 C799.004,768.8991 789.928,773.5121 781.019,778.4951 " fill="none" id="Health-backto-Troup" style="stroke:#A80036;stroke-width:1.0;"/><polygon fill="none" points="1162.362,656.3761,1182.402,649.4871,1171.032,667.3681,1162.362,656.3761" style="stroke:#A80036;stroke-width:1.0;"/><!--MD5=[b8de8e8c2d34987b961c72d03d2e48d0]
reverse link Health to HomeCase--><path codeLine="112" d="M1239.622,669.5301 C1260.902,790.6421 1292.412,1063.5781 1191.022,1257.9531 C1173.202,1292.1121 1138.877,1317.4078 1107.049,1334.754 " fill="none" id="Health-backto-HomeCase" style="stroke:#A80036;stroke-width:1.0;"/><polygon fill="none" points="1232.712,670.6781,1235.992,649.7431,1246.482,668.1531,1232.712,670.6781" style="stroke:#A80036;stroke-width:1.0;"/><!--MD5=[a4becfb276489fc5522a8d3ffe301247]
link Game to Grid--><path codeLine="114" d="M864.932,225.2331 C845.03,257.0831 823.644,291.3131 806.413,318.9031 " fill="none" id="Game-Grid" style="stroke:#A80036;stroke-width:1.0;"/><text fill="#000000" font-family="sans-serif" font-size="13" lengthAdjust="spacing" textLength="31" x="845.018" y="268.02">_grid</text><text fill="#000000" font-family="sans-serif" font-size="13" lengthAdjust="spacing" textLength="8" x="852.3556" y="244.7827">1</text><text fill="#000000" font-family="sans-serif" font-size="13" lengthAdjust="spacing" textLength="8" x="802.3074" y="307.8347">1</text><!--MD5=[7097ac6fc1fcdb4b130fcdb2d13eddb0]
link Game to Console--><path codeLine="115" d="M770.709,202.0831 C704.799,233.7531 628.272,270.5231 562.958,301.9031 " fill="none" id="Game-Console" style="stroke:#A80036;stroke-width:1.0;"/><text fill="#000000" font-family="sans-serif" font-size="13" lengthAdjust="spacing" textLength="56" x="655.018" y="268.02">_console</text><text fill="#000000" font-family="sans-serif" font-size="13" lengthAdjust="spacing" textLength="8" x="754.9925" y="202.4569">1</text><text fill="#000000" font-family="sans-serif" font-size="13" lengthAdjust="spacing" textLength="8" x="570.0081" y="290.6891">1</text><!--MD5=[6b6b9e8ceff4e9e58f06e15491e15318]
link Game to Player--><path codeLine="116" d="M1029.734,225.2431 C1063.289,267.1131 1092.018,319.0031 1092.018,373.9531 C1092.018,373.9531 1092.018,373.9531 1092.018,847.4531 C1092.018,899.5411 1082.776,956.0141 1071.801,1004.7121 " fill="none" id="Game-Player" style="stroke:#A80036;stroke-width:1.0;"/><text fill="#000000" font-family="sans-serif" font-size="13" lengthAdjust="spacing" textLength="23" x="1093.018" y="611.02">_p1</text><text fill="#000000" font-family="sans-serif" font-size="13" lengthAdjust="spacing" textLength="8" x="1028.7453" y="244.7934">1</text><text fill="#000000" font-family="sans-serif" font-size="13" lengthAdjust="spacing" textLength="8" x="1065.6385" y="994.0257">1</text><!--MD5=[6b6b9e8ceff4e9e58f06e15491e15318]
link Game to Player--><path codeLine="117" d="M967.73,225.1631 C983.185,269.7031 997.018,323.6331 997.018,373.9531 C997.018,373.9531 997.018,373.9531 997.018,847.4531 C997.018,899.2811 1003.517,955.9531 1011.209,1004.8771 " fill="none" id="Game-Player-1" style="stroke:#A80036;stroke-width:1.0;"/><text fill="#000000" font-family="sans-serif" font-size="13" lengthAdjust="spacing" textLength="23" x="998.018" y="611.02">_p2</text><text fill="#000000" font-family="sans-serif" font-size="13" lengthAdjust="spacing" textLength="8" x="962.3816" y="244.7078">1</text><text fill="#000000" font-family="sans-serif" font-size="13" lengthAdjust="spacing" textLength="8" x="1001.4535" y="993.7816">1</text><!--MD5=[dbcc1b7d6efa008d20850c17839fbbeb]
link Player to HomeCase--><path codeLine="118" d="M1036.018,1257.9591 C1036.018,1286.7861 1036.018,1314.8246 1036.018,1334.8898 " fill="none" id="Player-HomeCase" style="stroke:#A80036;stroke-width:1.0;"/><text fill="#000000" font-family="sans-serif" font-size="13" lengthAdjust="spacing" textLength="85" x="1037.018" y="1301.02">_playerHome</text><text fill="#000000" font-family="sans-serif" font-size="13" lengthAdjust="spacing" textLength="8" x="1027.7868" y="1277.7807">1</text><text fill="#000000" font-family="sans-serif" font-size="13" lengthAdjust="spacing" textLength="8" x="1027.143" y="1323.6663">1</text><!--MD5=[4ef74f20e27a1c236c92c69c84bb43fa]
link Grid to GridCase--><path codeLine="119" d="M759.256,431.2161 C752.793,459.2021 744.823,493.7131 737.686,524.6171 " fill="none" id="Grid-GridCase" style="stroke:#A80036;stroke-width:1.0;"/><text fill="#000000" font-family="sans-serif" font-size="13" lengthAdjust="spacing" textLength="70" x="748.018" y="491.02">_gridCases</text><text fill="#000000" font-family="sans-serif" font-size="13" lengthAdjust="spacing" textLength="8" x="749.2131" y="451.0608">1</text><text fill="#000000" font-family="sans-serif" font-size="13" lengthAdjust="spacing" textLength="23" x="715.302" y="514.002">2..*</text><!--MD5=[1ca66fae00146db8a5d38d1d7d50d902]
link GridCase to Troup--><path codeLine="120" d="M708.185,688.0291 C704.866,712.7071 701.216,739.8561 697.895,764.5551 " fill="none" id="GridCase-Troup" style="stroke:#A80036;stroke-width:1.0;"/><text fill="#000000" font-family="sans-serif" font-size="13" lengthAdjust="spacing" textLength="31" x="704.018" y="731.02">_unit</text><text fill="#000000" font-family="sans-serif" font-size="13" lengthAdjust="spacing" textLength="8" x="698.8176" y="708.3027">1</text><text fill="#000000" font-family="sans-serif" font-size="13" lengthAdjust="spacing" textLength="24" x="673.7985" y="753.9347">0..1</text><!--MD5=[bce3f919a0bd598c9168db26ac25a492]
link Troup to Player--><path codeLine="121" d="M730.928,928.2551 C743.539,945.6801 758.66,962.5651 776.018,974.9531 C815.524,1003.1471 837.957,982.5641 881.018,1004.9531 C886.855,1007.9881 892.679,1011.2631 898.461,1014.7271 " fill="none" id="Troup-Player" style="stroke:#A80036;stroke-width:1.0;"/><text fill="#000000" font-family="sans-serif" font-size="13" lengthAdjust="spacing" textLength="47" x="777.018" y="971.02">_owner</text><text fill="#000000" font-family="sans-serif" font-size="13" lengthAdjust="spacing" textLength="8" x="726.4825" y="948.2706">1</text><text fill="#000000" font-family="sans-serif" font-size="13" lengthAdjust="spacing" textLength="8" x="882.7196" y="1005.0075">1</text><!--MD5=[4b8c35e60789aa96e25745cb924d9f24]
link Player to GridCase--><path codeLine="122" d="M931.472,1004.8711 C912.707,980.0461 894.046,953.6931 878.018,927.9531 C835.464,859.6151 834.804,837.0661 799.018,764.9531 C786.612,739.9531 772.918,712.8251 760.418,688.2411 " fill="none" id="Player-GridCase" style="stroke:#A80036;stroke-width:1.0;"/><text fill="#000000" font-family="sans-serif" font-size="13" lengthAdjust="spacing" textLength="91" x="879.018" y="851.02">_playerTroups</text><text fill="#000000" font-family="sans-serif" font-size="13" lengthAdjust="spacing" textLength="24" x="900.37" y="993.7753">0..1</text><text fill="#000000" font-family="sans-serif" font-size="13" lengthAdjust="spacing" textLength="23" x="740.081" y="708.2554">0..*</text><!--MD5=[68de6645ef53ff79c661e6e7042352b9]
@startuml
title UML - Projet C++

class Game {
    - int _maxTurnLimit
    - int _earnings
    - int _currentTurn
    - string _consoleHeader
    __
    - void initializeGame(int gridSize)
    - void displayPlayer()
    ..
    + Game(int gridSize, int maxTurnLimit, int earnings)
    + void turn()
    + void play(Player* p)
    + void resolveActions(Player* p)
    + Console& getConsole()
}
class Console {
    - map<Panel, vector<string>> _panels
    __
    - int getMaxChar()
    ..
    + Console()
    + void addToPanel(string toAppend, Panel position)
    + void display()
    + void clear()
    + string prompt(string message)
}
abstract class Troup {
    # int _cost
    # int _damage
    # vector<vector<int> _reach
    # map<int, Action> _actions
    + int getCost()
    + int getDamage()
    + Player* getOwner()
    + Action getAction(int phase)
    + {abstract} string getName(bool isShort)
}
class Grid {
    - int _gridSize
    + Grid(const int gridSize, Player& p1, Player& p2)
    + void display(Console& console, Player& p1, Player& p2)
    + int getGridSize()
    + vector<GridCase*>& getAllCases()
}
class GridCase {
    - int position
    - bool _filled
    + GridCase(int position)
    + bool placeUnit(Troup* unit)
    + bool isEmpty()
    + string getTroupName(bool isShort)
    + Troup* getUnit()
    + Player* getUnitOwner()
    + Action getUnitAction(int phase)
}
class HomeCase {
    + HomeCase(int position)
}
abstract class Health {
    # int _initialHealth
    # int _currentHealth
    + int getCurrentHealth()
}
class Fantassin {
    Fantassin(Player* player)
}
class Archer {
    Archer(Player* player)
}
class Catapult {
    Catapult(Player* player)
}
class SuperSoldier
class Player {
    - string _playerName
    - int _playerId
    - int _coins
    - {static} int _playerNumber
    + Player(HomeCase &homeCase)
    + string displayStr()
    + void initialize(Console console)
    + string getFirstLetter()
    + string getName()
    + void incrementCoins(int coins)
    + void decrementCoins(int coins)
    + bool isKO()
    + bool canPlaceTroup()
    + void placeTroupOnHomeCase(Troup* troup)
    + GridCase& getHomeCase()
    + int getCoins()
}
enum Panel {
  Top
  Left
  Right
  Bottom
}
enum Action {
  Attack
  MoveForward
  None
}

Troup <|- - Fantassin
Troup <|- - SuperSoldier
Troup <|- - Archer
Troup <|- - Catapult
GridCase <|- - HomeCase
Health <|- - Troup
Health <|- - HomeCase

Game "1" - - "1" Grid : _grid
Game "1" - - "1" Console : _console
Game "1" - - "1" Player : _p1
Game "1" - - "1" Player : _p2
Player "1" - - "1" HomeCase : _playerHome
Grid "1"  - - "2..*" GridCase : _gridCases
GridCase "1"  - - "0..1" Troup : _unit
Troup "1"  - - "1" Player : _owner
Player "0..1"  - - "0..*" GridCase : _playerTroups
@enduml

PlantUML version 1.2021.01beta3(Unknown compile time)
(GPL source distribution)
Java Runtime: Java(TM) SE Runtime Environment
JVM: Java HotSpot(TM) 64-Bit Server VM
Default Encoding: UTF-8
Language: en
Country: US
--></g></svg>